<?xml version="1.0" encoding="UTF-8"?>
<svg width="24px" height="24px" viewBox="0 0 24 24" version="1.1" xmlns="http://www.w3.org/2000/svg" xmlns:xlink="http://www.w3.org/1999/xlink">
    <title>icon/24/booking</title>
    <g id="icon/24/booking" stroke="none" stroke-width="1" fill="none" fill-rule="evenodd">
        <path d="M8.368,8.416 L9.408,7.36 C8.688,6.576 7.808,5.792 6.784,4.992 L5.712,6.032 C6.848,6.88 7.728,7.68 8.368,8.416 Z M14.592,19.552 C15.68,19.552 16.224,19.008 16.224,17.92 L16.224,7.152 L19.456,7.152 L19.456,5.68 L10.096,5.68 L10.096,7.152 L14.688,7.152 L14.688,17.536 C14.688,17.952 14.48,18.176 14.064,18.176 C13.456,18.176 12.8,18.128 12.128,18.064 L12.464,19.552 L14.592,19.552 Z M7.056,19.168 C8.272,18.432 9.424,17.584 10.496,16.624 L10.096,15.024 C9.488,15.584 8.896,16.08 8.352,16.528 L8.352,9.648 L4.656,9.648 L4.656,11.104 L6.896,11.104 L6.896,16.992 C6.896,17.312 6.752,17.584 6.48,17.808 L7.056,19.168 Z" id="Mask" fill="#0091FF" fill-rule="nonzero"></path>
    </g>
</svg>