<?xml version="1.0" encoding="UTF-8"?>
<svg width="24px" height="24px" viewBox="0 0 24 24" version="1.1" xmlns="http://www.w3.org/2000/svg" xmlns:xlink="http://www.w3.org/1999/xlink">
    <title>icon/24/book</title>
    <g id="icon/24/book" stroke="none" stroke-width="1" fill="none" fill-rule="evenodd">
        <path d="M6,2 L19,2 C19.5522847,2 20,2.44771525 20,3 L20,21 C20,21.5522847 19.5522847,22 19,22 L6,22 C4.8954305,22 4,21.1045695 4,20 L4,4 C4,2.8954305 4.8954305,2 6,2 Z" id="Rectangle-Copy" fill="#0091FF" opacity="0.32"></path>
        <polygon id="Rectangle" fill="#0091FF" points="8 5 17 5 17 7 8 7"></polygon>
        <polygon id="Rectangle-Copy-2" fill="#0091FF" points="8 9 14 9 14 11 8 11"></polygon>
        <path d="M6,18 L19,18 C19.5128358,18 19.9355072,17.6139598 19.9932723,17.1166211 L20,17 L20,21 C20,21.5522847 19.5522847,22 19,22 L6,22 C4.8954305,22 4,21.1045695 4,20 C4,18.8954305 4.8954305,18 6,18 Z" id="Rectangle" fill="#0091FF"></path>
    </g>
</svg>