<?xml version="1.0" encoding="UTF-8"?>
<svg width="24px" height="24px" viewBox="0 0 24 24" version="1.1" xmlns="http://www.w3.org/2000/svg" xmlns:xlink="http://www.w3.org/1999/xlink">
    <title>icon/24/calendar</title>
    <g id="icon/24/calendar" stroke="none" stroke-width="1" fill="none" fill-rule="evenodd">
        <path d="M17,2 C17.5522847,2 18,2.44771525 18,3 L18,4 L19,4 C20.1045695,4 21,4.8954305 21,6 L21,19 C21,20.1045695 20.1045695,21 19,21 L5,21 C3.8954305,21 3,20.1045695 3,19 L3,6 C3,4.8954305 3.8954305,4 5,4 L6,4 L6,3 C6,2.44771525 6.44771525,2 7,2 C7.55228475,2 8,2.44771525 8,3 L8,4 L16,4 L16,3 C16,2.44771525 16.4477153,2 17,2 Z M15,15 L7,15 L7,17 L15,17 L15,15 Z M17,11 L7,11 L7,13 L17,13 L17,11 Z" id="Mask" fill="#0091FF"></path>
    </g>
</svg>