<?xml version="1.0" encoding="UTF-8"?>
<svg width="24px" height="24px" viewBox="0 0 24 24" version="1.1" xmlns="http://www.w3.org/2000/svg" xmlns:xlink="http://www.w3.org/1999/xlink">
    <title>icon/24/camera+</title>
    <g id="icon/24/camera+" stroke="none" stroke-width="1" fill="none" fill-rule="evenodd">
        <path d="M15,5 L16,7 L18,7 C19.1045695,7 20,7.8954305 20,9 L20,17 C20,18.1045695 19.1045695,19 18,19 L6,19 C4.8954305,19 4,18.1045695 4,17 L4,9 C4,7.8954305 4.8954305,7 6,7 L8,7 L9,5 L15,5 Z M12,9 C9.790861,9 8,10.790861 8,13 C8,15.209139 9.790861,17 12,17 C14.209139,17 16,15.209139 16,13 C16,10.790861 14.209139,9 12,9 Z" id="Combined-Shape" fill="#0091FF"></path>
        <polygon id="Combined-Shape" fill="#0091FF" points="12.5 11 12.5 12.5 14 12.5 14 13.5 12.5 13.5 12.5 15 11.5 15 11.5 13.5 10 13.5 10 12.5 11.5 12.5 11.5 11"></polygon>
    </g>
</svg>