<?xml version="1.0" encoding="UTF-8"?>
<svg width="24px" height="24px" viewBox="0 0 24 24" version="1.1" xmlns="http://www.w3.org/2000/svg" xmlns:xlink="http://www.w3.org/1999/xlink">
    <title>icon/24/camera</title>
    <g id="icon/24/camera" stroke="none" stroke-width="1" fill="none" fill-rule="evenodd">
        <path d="M16,6 C16.5522847,6 17,6.44771525 17,7 L17,10.333 L20.1799078,7.68341017 C20.2473009,7.62724923 20.3278616,7.59014193 20.4132758,7.57509834 L20.5,7.56752081 C20.7761424,7.56752081 21,7.79137843 21,8.06752081 L21,8.06752081 L21,15.9324792 C21,16.0494474 20.9589919,16.1627139 20.8841106,16.2525714 C20.7073286,16.4647098 20.3920462,16.4933719 20.1799078,16.3165898 L20.1799078,16.3165898 L17,13.667 L17,17 C17,17.5522847 16.5522847,18 16,18 L4,18 C3.44771525,18 3,17.5522847 3,17 L3,7 C3,6.44771525 3.44771525,6 4,6 L16,6 Z" id="Combined-Shape" fill="#0091FF"></path>
    </g>
</svg>