<?xml version="1.0" encoding="UTF-8"?>
<svg width="24px" height="24px" viewBox="0 0 24 24" version="1.1" xmlns="http://www.w3.org/2000/svg" xmlns:xlink="http://www.w3.org/1999/xlink">
    <title>icon/24/cancel</title>
    <g id="icon/24/cancel" stroke="none" stroke-width="1" fill="none" fill-rule="evenodd">
        <path d="M6,6 C6.39052429,5.60947571 7.02368927,5.60947571 7.41421356,6 L7.41421356,6 L11.9998932,10.5848932 L16.5857864,6 C16.9462704,5.63951604 17.5135015,5.6117865 17.9057927,5.91681139 L18,6 C18.3905243,6.39052429 18.3905243,7.02368927 18,7.41421356 L18,7.41421356 L13.4138932,11.9998932 L18,16.5857864 C18.360484,16.9462704 18.3882135,17.5135015 18.0831886,17.9057927 L18,18 C17.6094757,18.3905243 16.9763107,18.3905243 16.5857864,18 L16.5857864,18 L11.9998932,13.4138932 L7.41421356,18 C7.0537296,18.360484 6.48649854,18.3882135 6.09420734,18.0831886 L6,18 C5.60947571,17.6094757 5.60947571,16.9763107 6,16.5857864 L6,16.5857864 L10.5848932,11.9998932 L6,7.41421356 C5.63951604,7.0537296 5.6117865,6.48649854 5.91681139,6.09420734 Z" id="Combined-Shape" fill="#0091FF" fill-rule="nonzero"></path>
    </g>
</svg>