<?xml version="1.0" encoding="UTF-8"?>
<svg width="24px" height="24px" viewBox="0 0 24 24" version="1.1" xmlns="http://www.w3.org/2000/svg" xmlns:xlink="http://www.w3.org/1999/xlink">
    <title>icon/24/chest with check</title>
    <g id="icon/24/chest-with-check" stroke="none" stroke-width="1" fill="none" fill-rule="evenodd">
        <path d="M22.7071068,15.2928932 C23.0675907,15.6533772 23.0953203,16.2206082 22.7902954,16.6128994 L22.7071068,16.7071068 L16.7071068,22.7071068 C16.3466228,23.0675907 15.7793918,23.0953203 15.3871006,22.7902954 L15.2928932,22.7071068 L11.2928932,18.7071068 C10.9023689,18.3165825 10.9023689,17.6834175 11.2928932,17.2928932 C11.6533772,16.9324093 12.2206082,16.9046797 12.6128994,17.2097046 L12.7071068,17.2928932 L16,20.585 L21.2928932,15.2928932 C21.6834175,14.9023689 22.3165825,14.9023689 22.7071068,15.2928932 Z M12,11 C15.1156064,11 17.8614513,12.5831368 19.4769771,14.9888526 L16,18.465 L13.767767,16.232233 L13.6370817,16.1104249 C12.6549584,15.2577679 11.1660955,15.2983706 10.232233,16.232233 C9.29837061,17.1660955 9.2577679,18.6549584 10.1104249,19.6370817 L10.232233,19.767767 L10.465,20 L3,20 C3,15.1181973 6.88681368,11.1442086 11.7346377,11.0038371 L12,11 Z M12,2 C14.209139,2 16,3.790861 16,6 C16,8.209139 14.209139,10 12,10 C9.790861,10 8,8.209139 8,6 C8,3.790861 9.790861,2 12,2 Z" id="Combined-Shape" fill="#0091FF"></path>
    </g>
</svg>