<?xml version="1.0" encoding="UTF-8"?>
<svg width="24px" height="24px" viewBox="0 0 24 24" version="1.1" xmlns="http://www.w3.org/2000/svg" xmlns:xlink="http://www.w3.org/1999/xlink">
    <title>icon/24/delete</title>
    <g id="icon/24/delete" stroke="none" stroke-width="1" fill="none" fill-rule="evenodd">
        <path d="M13,4 C13.5522847,4 14,4.44771525 14,5 L14,6 L20,6 L20,7 L18,7 L18,18 C18,19.1045695 17.1045695,20 16,20 L8,20 C6.8954305,20 6,19.1045695 6,18 L6,7 L4,7 L4,6 L10,6 L10,5 C10,4.44771525 10.4477153,4 11,4 L13,4 Z M17,7 L7,7 L7,18 C7,18.5522847 7.44771525,19 8,19 L16,19 C16.5522847,19 17,18.5522847 17,18 L17,7 Z M10,9 L10,17 L9,17 L9,9 L10,9 Z M15,9 L15,17 L14,17 L14,9 L15,9 Z" id="Mask" fill="#0091FF"></path>
    </g>
</svg>