<?xml version="1.0" encoding="UTF-8"?>
<svg width="24px" height="24px" viewBox="0 0 24 24" version="1.1" xmlns="http://www.w3.org/2000/svg" xmlns:xlink="http://www.w3.org/1999/xlink">
    <title>icon/24/gender-male</title>
    <g id="icon/24/gender-male" stroke="none" stroke-width="1" fill="none" fill-rule="evenodd">
        <path d="M12,2.58578644 L16.7071068,7.29289322 L15.2928932,8.70710678 L13,6.41478644 L13.0011864,11.1002591 C15.2828356,11.5639878 17,13.5814613 17,16 C17,18.7614237 14.7614237,21 12,21 C9.23857625,21 7,18.7614237 7,16 C7,13.5811085 8.71766536,11.5633992 10.999812,11.1000563 L11,6.41478644 L8.70710678,8.70710678 L7.29289322,7.29289322 L12,2.58578644 Z M12,13 C10.3431458,13 9,14.3431458 9,16 C9,17.6568542 10.3431458,19 12,19 C13.6568542,19 15,17.6568542 15,16 C15,14.3431458 13.6568542,13 12,13 Z" id="Mask" fill="#0091FF"></path>
    </g>
</svg>