<?xml version="1.0" encoding="UTF-8"?>
<svg width="24px" height="24px" viewBox="0 0 24 24" version="1.1" xmlns="http://www.w3.org/2000/svg" xmlns:xlink="http://www.w3.org/1999/xlink">
    <title>icon/24/gender-female</title>
    <g id="icon/24/gender-female" stroke="none" stroke-width="1" fill="none" fill-rule="evenodd">
        <path d="M12,3 C14.7614237,3 17,5.23857625 17,8 C17,10.4185387 15.2828356,12.4360122 13.0011864,12.8997409 L13,15 L17,15 L17,17 L13,17 L13,21 L11,21 L11,17 L7,17 L7,15 L11,15 L10.999812,12.8999437 C8.71766536,12.4366008 7,10.4188915 7,8 C7,5.23857625 9.23857625,3 12,3 Z M12,5 C10.3431458,5 9,6.34314575 9,8 C9,9.65685425 10.3431458,11 12,11 C13.6568542,11 15,9.65685425 15,8 C15,6.34314575 13.6568542,5 12,5 Z" id="Mask" fill="#0091FF"></path>
    </g>
</svg>