<?xml version="1.0" encoding="UTF-8"?>
<svg width="24px" height="24px" viewBox="0 0 24 24" version="1.1" xmlns="http://www.w3.org/2000/svg" xmlns:xlink="http://www.w3.org/1999/xlink">
    <title>icon/24/home</title>
    <g id="icon/24/home" stroke="none" stroke-width="1" fill="none" fill-rule="evenodd">
        <path d="M14.1621479,2.01304352 L14.2747211,2.03847605 L21.2747211,4.03847605 C21.8057561,4.19020034 22.1132482,4.74368612 21.9615239,5.27472113 C21.8206371,5.76782507 21.3333335,6.06818027 20.8392611,5.98709336 L20.7252789,5.96152395 L15,4.325 L14.999,8.24539154 L21.2747211,10.0384761 C21.6649953,10.149983 21.9450841,10.4844059 21.9927839,10.8797358 L22,11 L22,17 C22,17.5522847 21.5522847,18 21,18 C20.4871642,18 20.0644928,17.6139598 20.0067277,17.1166211 L20,17 L20,11.754 L14.999,10.3253915 L14.9998557,15.4828385 C14.9999518,15.4885475 15,15.4942681 15,15.5 C15,19.0898509 12.0898509,22 8.5,22 C4.91014913,22 2,19.0898509 2,15.5 C2,11.9101491 4.91014913,9 8.5,9 C9.05228475,9 9.5,9.44771525 9.5,10 C9.5,10.5522847 9.05228475,11 8.5,11 C6.01471863,11 4,13.0147186 4,15.5 C4,17.9852814 6.01471863,20 8.5,20 C10.9812621,20 12.9934822,17.9917927 12.9999842,15.5120543 L13,15.5 L13,3 C13,2.37470223 13.5632929,1.91302735 14.1621479,2.01304352 Z" id="Combined-Shape" fill="#0091FF" fill-rule="nonzero"></path>
        <circle id="Oval" fill="#0091FF" opacity="0.24" cx="10.5" cy="17.5" r="5.5"></circle>
    </g>
</svg>