<?xml version="1.0" encoding="UTF-8"?>
<svg width="24px" height="24px" viewBox="0 0 24 24" version="1.1" xmlns="http://www.w3.org/2000/svg" xmlns:xlink="http://www.w3.org/1999/xlink">
    <title>icon/24/lives</title>
    <g id="icon/24/lives" stroke="none" stroke-width="1" fill="none" fill-rule="evenodd">
        <path d="M12,3 C16.9705627,3 21,7.02943725 21,12 C21,16.9705627 16.9705627,21 12,21 C7.02943725,21 3,16.9705627 3,12 C3,7.02943725 7.02943725,3 12,3 Z M12,8 C9.790861,8 8,9.790861 8,12 C8,14.209139 9.790861,16 12,16 C14.209139,16 16,14.209139 16,12 C16,9.790861 14.209139,8 12,8 Z" id="Combined-Shape" fill="#0091FF" opacity="0.24"></path>
        <path d="M19.6837722,3.0513167 C20.4299958,2.80257551 21.1415781,3.46893215 20.9780833,4.2099508 L20.9486833,4.31622777 L16.9486833,16.3162278 C16.8615902,16.5775071 16.6713057,16.7895649 16.4250534,16.9051775 L16.3162278,16.9486833 L4.31622777,20.9486833 C3.57000419,21.1974245 2.85842188,20.5310679 3.02191665,19.7900492 L3.0513167,19.6837722 L7.0513167,7.68377223 C7.13840983,7.42249286 7.3286943,7.21043511 7.57494661,7.09482249 L7.68377223,7.0513167 L19.6837722,3.0513167 Z M12,9 C10.3431458,9 9,10.3431458 9,12 C9,13.6568542 10.3431458,15 12,15 C13.6568542,15 15,13.6568542 15,12 C15,10.3431458 13.6568542,9 12,9 Z" id="Combined-Shape" fill="#0091FF" fill-rule="nonzero"></path>
    </g>
</svg>