<?xml version="1.0" encoding="UTF-8"?>
<svg width="24px" height="24px" viewBox="0 0 24 24" version="1.1" xmlns="http://www.w3.org/2000/svg" xmlns:xlink="http://www.w3.org/1999/xlink">
    <title>icon/24/livePhoto</title>
    <g id="icon/24/livePhoto" stroke="none" stroke-width="1" fill="none" fill-rule="evenodd">
        <circle id="Oval" fill="#0091FF" cx="12" cy="12" r="3"></circle>
        <path d="M12,5.5 C8.41014913,5.5 5.5,8.41014913 5.5,12 C5.5,15.5898509 8.41014913,18.5 12,18.5 C15.5898509,18.5 18.5,15.5898509 18.5,12 C18.5,8.41014913 15.5898509,5.5 12,5.5 Z M12,6.5 C15.0375661,6.5 17.5,8.96243388 17.5,12 C17.5,15.0375661 15.0375661,17.5 12,17.5 C8.96243388,17.5 6.5,15.0375661 6.5,12 C6.5,8.96243388 8.96243388,6.5 12,6.5 Z" id="Oval-Copy" fill="#0091FF" fill-rule="nonzero"></path>
        <path d="M12,20.5 C12.2761424,20.5 12.5,20.7238576 12.5,21 L12.5,21.5 C12.5,21.7761424 12.2761424,22 12,22 C11.7238576,22 11.5,21.7761424 11.5,21.5 L11.5,21 C11.5,20.7238576 11.7238576,20.5 12,20.5 Z M14.8123343,20.5639229 L14.9417438,21.0468858 C15.0132147,21.3136189 14.8549235,21.5877874 14.5881905,21.6592583 C14.3214574,21.7307292 14.0472889,21.5724379 13.975818,21.3057049 L13.8464085,20.822742 C13.7749376,20.5560089 13.9332288,20.2818404 14.1999619,20.2103695 C14.4666949,20.1388986 14.7408634,20.2971899 14.8123343,20.5639229 Z M9.80003812,20.2103695 C10.0667712,20.2818404 10.2250624,20.5560089 10.1535915,20.822742 L10.024182,21.3057049 C9.95271108,21.5724379 9.6785426,21.7307292 9.41180955,21.6592583 C9.1450765,21.5877874 8.98678525,21.3136189 9.05825616,21.0468858 L9.18766568,20.5639229 C9.25913659,20.2971899 9.53330506,20.1388986 9.80003812,20.2103695 Z M16.9330127,19.5442286 L17.1830127,19.9772413 C17.3210839,20.2163876 17.2391463,20.5221829 17,20.660254 C16.7608537,20.7983252 16.4550585,20.7163876 16.3169873,20.4772413 L16.0669873,20.0442286 C15.9289161,19.8050823 16.0108537,19.4992871 16.25,19.3612159 C16.4891463,19.2231447 16.7949415,19.3050823 16.9330127,19.5442286 Z M7.75,19.3612159 C7.98914631,19.4992871 8.07108389,19.8050823 7.9330127,20.0442286 L7.6830127,20.4772413 C7.54494151,20.7163876 7.23914631,20.7983252 7,20.660254 C6.76085369,20.5221829 6.67891611,20.2163876 6.8169873,19.9772413 L7.0669873,19.5442286 C7.20505849,19.3050823 7.51085369,19.2231447 7.75,19.3612159 Z M18.7175144,18.0104076 L19.0710678,18.363961 C19.26633,18.5592232 19.26633,18.8758057 19.0710678,19.0710678 C18.8758057,19.26633 18.5592232,19.26633 18.363961,19.0710678 L18.0104076,18.7175144 C17.8151455,18.5222523 17.8151455,18.2056698 18.0104076,18.0104076 C18.2056698,17.8151455 18.5222523,17.8151455 18.7175144,18.0104076 Z M5.98959236,18.0104076 C6.18485451,18.2056698 6.18485451,18.5222523 5.98959236,18.7175144 L5.63603897,19.0710678 C5.44077682,19.26633 5.12419433,19.26633 4.92893219,19.0710678 C4.73367004,18.8758057 4.73367004,18.5592232 4.92893219,18.363961 L5.28248558,18.0104076 C5.47774772,17.8151455 5.79433021,17.8151455 5.98959236,18.0104076 Z M20.0442286,16.0669873 L20.4772413,16.3169873 C20.7163876,16.4550585 20.7983252,16.7608537 20.660254,17 C20.5221829,17.2391463 20.2163876,17.3210839 19.9772413,17.1830127 L19.5442286,16.9330127 C19.3050823,16.7949415 19.2231447,16.4891463 19.3612159,16.25 C19.4992871,16.0108537 19.8050823,15.9289161 20.0442286,16.0669873 Z M4.63878407,16.25 C4.77685526,16.4891463 4.69491768,16.7949415 4.45577137,16.9330127 L4.02275866,17.1830127 C3.78361235,17.3210839 3.47781715,17.2391463 3.33974596,17 C3.20167477,16.7608537 3.28361235,16.4550585 3.52275866,16.3169873 L3.95577137,16.0669873 C4.19491768,15.9289161 4.50071288,16.0108537 4.63878407,16.25 Z M20.822742,13.8464085 L21.3057049,13.975818 C21.5724379,14.0472889 21.7307292,14.3214574 21.6592583,14.5881905 C21.5877874,14.8549235 21.3136189,15.0132147 21.0468858,14.9417438 L20.5639229,14.8123343 C20.2971899,14.7408634 20.1388986,14.4666949 20.2103695,14.1999619 C20.2818404,13.9332288 20.5560089,13.7749376 20.822742,13.8464085 Z M3.78963048,14.1999619 C3.86110138,14.4666949 3.70281014,14.7408634 3.43607709,14.8123343 L2.95311417,14.9417438 C2.68638112,15.0132147 2.41221264,14.8549235 2.34074174,14.5881905 C2.26927083,14.3214574 2.42756208,14.0472889 2.69429513,13.975818 L3.17725804,13.8464085 C3.44399109,13.7749376 3.71815957,13.9332288 3.78963048,14.1999619 Z M21.5,11.5 C21.7761424,11.5 22,11.7238576 22,12 C22,12.2761424 21.7761424,12.5 21.5,12.5 L21,12.5 C20.7238576,12.5 20.5,12.2761424 20.5,12 C20.5,11.7238576 20.7238576,11.5 21,11.5 L21.5,11.5 Z M3,11.5 C3.27614237,11.5 3.5,11.7238576 3.5,12 C3.5,12.2761424 3.27614237,12.5 3,12.5 L2.5,12.5 C2.22385763,12.5 2,12.2761424 2,12 C2,11.7238576 2.22385763,11.5 2.5,11.5 L3,11.5 Z M21.6592583,9.41180955 C21.7307292,9.6785426 21.5724379,9.95271108 21.3057049,10.024182 L20.822742,10.1535915 C20.5560089,10.2250624 20.2818404,10.0667712 20.2103695,9.80003812 C20.1388986,9.53330506 20.2971899,9.25913659 20.5639229,9.18766568 L21.0468858,9.05825616 C21.3136189,8.98678525 21.5877874,9.1450765 21.6592583,9.41180955 Z M2.95311417,9.05825616 L3.43607709,9.18766568 C3.70281014,9.25913659 3.86110138,9.53330506 3.78963048,9.80003812 C3.71815957,10.0667712 3.44399109,10.2250624 3.17725804,10.1535915 L2.69429513,10.024182 C2.42756208,9.95271108 2.26927083,9.6785426 2.34074174,9.41180955 C2.41221264,9.1450765 2.68638112,8.98678525 2.95311417,9.05825616 Z M20.660254,7 C20.7983252,7.23914631 20.7163876,7.54494151 20.4772413,7.6830127 L20.0442286,7.9330127 C19.8050823,8.07108389 19.4992871,7.98914631 19.3612159,7.75 C19.2231447,7.51085369 19.3050823,7.20505849 19.5442286,7.0669873 L19.9772413,6.8169873 C20.2163876,6.67891611 20.5221829,6.76085369 20.660254,7 Z M4.02275866,6.8169873 L4.45577137,7.0669873 C4.69491768,7.20505849 4.77685526,7.51085369 4.63878407,7.75 C4.50071288,7.98914631 4.19491768,8.07108389 3.95577137,7.9330127 L3.52275866,7.6830127 C3.28361235,7.54494151 3.20167477,7.23914631 3.33974596,7 C3.47781715,6.76085369 3.78361235,6.67891611 4.02275866,6.8169873 Z M19.0710678,4.92893219 C19.26633,5.12419433 19.26633,5.44077682 19.0710678,5.63603897 L18.7175144,5.98959236 C18.5222523,6.18485451 18.2056698,6.18485451 18.0104076,5.98959236 C17.8151455,5.79433021 17.8151455,5.47774772 18.0104076,5.28248558 L18.363961,4.92893219 C18.5592232,4.73367004 18.8758057,4.73367004 19.0710678,4.92893219 Z M5.63603897,4.92893219 L5.98959236,5.28248558 C6.18485451,5.47774772 6.18485451,5.79433021 5.98959236,5.98959236 C5.79433021,6.18485451 5.47774772,6.18485451 5.28248558,5.98959236 L4.92893219,5.63603897 C4.73367004,5.44077682 4.73367004,5.12419433 4.92893219,4.92893219 C5.12419433,4.73367004 5.44077682,4.73367004 5.63603897,4.92893219 Z M17,3.33974596 C17.2391463,3.47781715 17.3210839,3.78361235 17.1830127,4.02275866 L16.9330127,4.45577137 C16.7949415,4.69491768 16.4891463,4.77685526 16.25,4.63878407 C16.0108537,4.50071288 15.9289161,4.19491768 16.0669873,3.95577137 L16.3169873,3.52275866 C16.4550585,3.28361235 16.7608537,3.20167477 17,3.33974596 Z M7.6830127,3.52275866 L7.9330127,3.95577137 C8.07108389,4.19491768 7.98914631,4.50071288 7.75,4.63878407 C7.51085369,4.77685526 7.20505849,4.69491768 7.0669873,4.45577137 L6.8169873,4.02275866 C6.67891611,3.78361235 6.76085369,3.47781715 7,3.33974596 C7.23914631,3.20167477 7.54494151,3.28361235 7.6830127,3.52275866 Z M14.5881905,2.34074174 C14.8549235,2.41221264 15.0132147,2.68638112 14.9417438,2.95311417 L14.8123343,3.43607709 C14.7408634,3.70281014 14.4666949,3.86110138 14.1999619,3.78963048 C13.9332288,3.71815957 13.7749376,3.44399109 13.8464085,3.17725804 L13.975818,2.69429513 C14.0472889,2.42756208 14.3214574,2.26927083 14.5881905,2.34074174 Z M10.024182,2.69429513 L10.1535915,3.17725804 C10.2250624,3.44399109 10.0667712,3.71815957 9.80003812,3.78963048 C9.53330506,3.86110138 9.25913659,3.70281014 9.18766568,3.43607709 L9.05825616,2.95311417 C8.98678525,2.68638112 9.1450765,2.41221264 9.41180955,2.34074174 C9.6785426,2.26927083 9.95271108,2.42756208 10.024182,2.69429513 Z M12,2 C12.2761424,2 12.5,2.22385763 12.5,2.5 L12.5,3 C12.5,3.27614237 12.2761424,3.5 12,3.5 C11.7238576,3.5 11.5,3.27614237 11.5,3 L11.5,2.5 C11.5,2.22385763 11.7238576,2 12,2 Z" id="Combined-Shape" fill="#0091FF" fill-rule="nonzero"></path>
    </g>
</svg>