<?xml version="1.0" encoding="UTF-8"?>
<svg width="24px" height="24px" viewBox="0 0 24 24" version="1.1" xmlns="http://www.w3.org/2000/svg" xmlns:xlink="http://www.w3.org/1999/xlink">
    <title>icon/24/live</title>
    <g id="icon/24/live" stroke="none" stroke-width="1" fill="none" fill-rule="evenodd">
        <path d="M3.75,18.25 L3.75,20 L3.75660268,20.0573227 C3.78251318,20.1677666 3.88165327,20.25 4,20.25 L4,20.25 L20,20.25 L20.0573227,20.2433973 C20.1677666,20.2174868 20.25,20.1183467 20.25,20 L20.25,20 L20.25,18.25 L21.75,18.25 L21.75,20 L21.7441988,20.1435272 C21.6711923,21.0428897 20.9181734,21.75 20,21.75 L20,21.75 L4,21.75 L3.85647279,21.7441988 C2.95711027,21.6711923 2.25,20.9181734 2.25,20 L2.25,20 L2.25,18.25 L3.75,18.25 Z M4,8 L4,14 L6,14 L6,16 L2,16 L2,8 L4,8 Z M9,8 L9,16 L7,16 L7,8 L9,8 Z M12,8 L13,12 L14,8 L16,8 L14,16 L12,16 L10,8 L12,8 Z M22,8 L22,10 L19,10 L19,11 L21,11 L21,13 L19,13 L19,14 L22,14 L22,16 L17,16 L17,8 L22,8 Z M20,2.25 C20.9181734,2.25 21.6711923,2.95711027 21.7441988,3.85647279 L21.75,4 L21.75,5.75 L20.25,5.75 L20.25,4 C20.25,3.88165327 20.1677666,3.78251318 20.0573227,3.75660268 L20,3.75 L4,3.75 C3.88165327,3.75 3.78251318,3.83223341 3.75660268,3.94267729 L3.75,4 L3.75,5.75 L2.25,5.75 L2.25,4 C2.25,3.0818266 2.95711027,2.32880766 3.85647279,2.2558012 L4,2.25 L20,2.25 Z" id="Combined-Shape" fill="#0091FF" fill-rule="nonzero"></path>
    </g>
</svg>