<?xml version="1.0" encoding="UTF-8"?>
<svg width="24px" height="24px" viewBox="0 0 24 24" version="1.1" xmlns="http://www.w3.org/2000/svg" xmlns:xlink="http://www.w3.org/1999/xlink">
    <title>icon/24/location</title>
    <g id="icon/24/location" stroke="none" stroke-width="1" fill="none" fill-rule="evenodd">
        <path d="M12,2 C15.8659932,2 19,5.13400675 19,9 C19,10.1372463 18.7288018,11.211151 18.2475498,12.1605694 C17.2541821,14.6014521 15.2764595,17.7459823 12.3145661,21.5934917 L12,22 C8.86316472,17.9669261 6.78058682,14.6868931 5.75226631,12.1599012 C5.27119823,11.211151 5,10.1372463 5,9 C5,5.13400675 8.13400675,2 12,2 Z M12,6 C10.3431458,6 9,7.34314575 9,9 C9,10.6568542 10.3431458,12 12,12 C13.6568542,12 15,10.6568542 15,9 C15,7.34314575 13.6568542,6 12,6 Z" id="Mask" fill="#0091FF"></path>
    </g>
</svg>