<?xml version="1.0" encoding="UTF-8"?>
<svg width="24px" height="24px" viewBox="0 0 24 24" version="1.1" xmlns="http://www.w3.org/2000/svg" xmlns:xlink="http://www.w3.org/1999/xlink">
    <title>icon/24/map</title>
    <g id="icon/24/map" stroke="none" stroke-width="1" fill="none" fill-rule="evenodd">
        <path d="M15.1418078,12.5705308 L22,16 L20.0013009,17.0006504 L20.8465646,17.4232823 L21.3146471,17.6573236 C21.3599257,17.6799628 21.4029607,17.7014804 21.4437522,17.7218761 L21.6615789,17.8307894 C21.7252136,17.8626068 21.7798742,17.8899371 21.8255607,17.9127803 L21.9857601,17.99288 C21.9952534,17.9976267 22,18 22,18 C22,18 21.9952534,18.0023733 21.9857601,18.00712 L21.8255607,18.0872197 C21.7798742,18.1100629 21.7252136,18.1373932 21.6615789,18.1692106 L21.4437522,18.2781239 L21.3808823,18.3095588 L20.1167675,18.9416162 L20.0339979,18.9830011 L19.5934496,19.2032752 C19.5317432,19.2341284 19.4688501,19.2655749 19.4047704,19.2976148 L18.3545746,19.8227127 C17.6235908,20.1882046 16.782674,20.608663 15.831824,21.084088 L13.7977928,22.1011036 L13.6260235,22.1869883 L12.740477,22.6297615 C12.498398,22.750801 12.2515723,22.8742138 12,23 L2,18 L4,17 L2,16 L8.85748918,12.5709629 C9.04649656,12.8390908 9.24507508,13.1128851 9.45319558,13.3923113 L4.23606798,16 L12,19.881966 L19.763932,16 L14.5466878,13.3917866 C14.7544768,13.1126177 14.9528484,12.8388806 15.1418078,12.5705308 Z M12,1 C14.7614237,1 17,3.23857625 17,6 C17,6.75143722 16.8342356,7.46415809 16.5372791,8.10359038 C15.8621033,9.83930371 14.4492399,12.0178298 12.2984389,14.6391185 L12,15 C9.68097643,12.2171717 8.16863341,9.91835176 7.46297093,8.10354014 C7.16576437,7.46415809 7,6.75143722 7,6 C7,3.23857625 9.23857625,1 12,1 Z M12,4 C10.8954305,4 10,4.8954305 10,6 C10,7.1045695 10.8954305,8 12,8 C13.1045695,8 14,7.1045695 14,6 C14,4.8954305 13.1045695,4 12,4 Z" id="Mask" fill="#0091FF"></path>
    </g>
</svg>