<?xml version="1.0" encoding="UTF-8"?>
<svg width="24px" height="24px" viewBox="0 0 24 24" version="1.1" xmlns="http://www.w3.org/2000/svg" xmlns:xlink="http://www.w3.org/1999/xlink">
    <title>icon/24/microphone</title>
    <g id="icon/24/microphone" stroke="none" stroke-width="1" fill="none" fill-rule="evenodd">
        <path d="M18.363961,14.5355339 L19.7781746,15.9497475 L18.7174661,17.0094661 L19.3535534,17.6464466 C20.0595699,18.3524631 20.098793,19.4727719 19.4712228,20.2248209 L19.3535534,20.3535534 C18.9965308,20.710576 18.9965308,21.289424 19.3535534,21.6464466 L19.3535534,21.6464466 L18.6464466,22.3535534 C17.8988997,21.6060065 17.8988997,20.3939935 18.6464466,19.6464466 C19.0034692,19.289424 19.0034692,18.710576 18.6464466,18.3535534 L18.6464466,18.3535534 L18.0094661,17.7174661 L16.9497475,18.7781746 L15.5355339,17.363961 L18.363961,14.5355339 Z M11.9112919,5.43293054 C12.2828618,6.06234817 12.4672427,6.77168338 12.4644345,7.48041461 L17.6568542,13.8284271 L14.8284271,16.6568542 L8.48180518,11.4644287 C7.77261126,11.4674838 7.06275982,11.2831048 6.43293054,10.9112919 L11.9112919,5.43293054 Z M12,9.58578644 L10.5857864,11 L12,12.4142136 L13.4142136,11 L12,9.58578644 Z M11.1482647,4.49833343 L11.2928932,4.63603897 L5.63603897,10.2928932 C4.0739418,8.73079605 4.0739418,6.19813614 5.63603897,4.63603897 C7.15079986,3.12127808 9.57819275,3.07537624 11.1482647,4.49833343 Z" id="Mask" fill="#0091FF"></path>
    </g>
</svg>