<?xml version="1.0" encoding="UTF-8"?>
<svg width="24px" height="24px" viewBox="0 0 24 24" version="1.1" xmlns="http://www.w3.org/2000/svg" xmlns:xlink="http://www.w3.org/1999/xlink">
    <title>icon/24/moment</title>
    <g id="icon/24/moment" stroke="none" stroke-width="1" fill="none" fill-rule="evenodd">
        <path d="M12,2 C17.5228475,2 22,6.4771525 22,12 C22,13.4214733 21.7034123,14.7736748 21.1687435,15.9980978 L21.1666667,21.1666667 L17.5342548,20.3302755 C15.9494936,21.3852243 14.0465411,22 12,22 C6.4771525,22 2,17.5228475 2,12 C2,6.4771525 6.4771525,2 12,2 Z" id="Path" fill="#0091FF" fill-rule="nonzero" opacity="0.24"></path>
        <path d="M11.1456049,6.23488194 C11.4149667,5.49385928 12.4073591,5.44092909 12.780011,6.07609137 L12.8543951,6.23488194 L13.9563636,9.27272727 L17.4545455,9.27272727 C18.2878873,9.27272727 18.6569137,10.2784446 18.099695,10.824091 L17.9757645,10.9266517 L15.2509091,12.8309091 L16.4906766,16.2346561 C16.7766087,17.0206173 15.9506194,17.7135525 15.2455223,17.3675019 L15.1150342,17.2902108 L12,15.1090909 L8.88496577,17.2902108 C8.1997958,17.7698298 7.31668286,17.1513406 7.46844049,16.3807027 L7.50932342,16.2346561 L8.74727273,12.8309091 L6.0242355,10.9266517 C5.34146444,10.4488627 5.6157338,9.41328356 6.38511391,9.28570253 L6.54545455,9.27272727 L10.0418182,9.27272727 L11.1456049,6.23488194 Z" id="Path-3" fill="#0091FF" fill-rule="nonzero"></path>
    </g>
</svg>