<?xml version="1.0" encoding="UTF-8"?>
<svg width="24px" height="24px" viewBox="0 0 24 24" version="1.1" xmlns="http://www.w3.org/2000/svg" xmlns:xlink="http://www.w3.org/1999/xlink">
    <title>icon/24/musicNotation</title>
    <g id="icon/24/musicNotation" stroke="none" stroke-width="1" fill="none" fill-rule="evenodd">
        <path d="M19.6000005,2.61721778 L19.601001,15.4855225 C20.1301491,16.6724247 19.330941,18.3100421 17.7339751,19.2320508 C16.0599509,20.1985491 14.1432421,20.0127189 13.4528861,18.8169873 C12.7625302,17.6212557 13.5599509,15.8684221 15.2339751,14.9019238 C16.0199069,14.4481658 16.8593306,14.2484014 17.6002258,14.2878917 L17.5993957,6.88521778 L8.59939574,8.11321778 L8.60100101,16.9855225 C9.10960538,18.1263442 8.39099593,19.6835632 6.91633927,20.6214944 L6.73397506,20.7320508 C5.05995088,21.6985491 3.14324208,21.5127189 2.45288614,20.3169873 C1.76253021,19.1212557 2.55995088,17.3684221 4.23397506,16.4019238 C5.01990687,15.9481658 5.85933063,15.7484014 6.60022582,15.7878917 L6.60000046,4.36721778 L19.6000005,2.61721778 Z" id="Mask" fill="#0091FF"></path>
    </g>
</svg>