<?xml version="1.0" encoding="UTF-8"?>
<svg width="24px" height="24px" viewBox="0 0 24 24" version="1.1" xmlns="http://www.w3.org/2000/svg" xmlns:xlink="http://www.w3.org/1999/xlink">
    <title>icon/24/网易云音乐</title>
    <g id="icon/24/网易云音乐" stroke="none" stroke-width="1" fill="none" fill-rule="evenodd">
        <g id="Rectangle" transform="translate(2.000000, 1.000000)" fill="#0091FF">
            <path d="M9.88308415,3.1958338 C10.0138808,1.37887226 11.8098948,-0.0871073822 13.6156696,0.00403156379 C14.662043,0.0311793349 15.6888944,0.447121971 16.4941724,1.10448586 C17.0320005,1.52042849 17.2262433,2.3513442 16.8660644,2.93696041 C16.4512243,3.52936356 15.5327193,3.49833753 14.9997717,3.08627315 C14.5048918,2.70426523 13.8733586,2.3620094 13.2281601,2.49968738 C12.6639775,2.62960886 12.401408,3.2617641 12.4921848,3.78823695 C12.5839377,4.31761848 12.7586586,4.82760876 12.8972641,5.3463251 C13.919235,5.38995544 14.9402299,5.6497984 15.839213,6.13942784 C17.336542,6.99458263 18.6181541,8.27343656 19.3238705,9.85188554 C19.9983518,11.3178652 20.1408616,12.9874531 19.8724356,14.5668717 C19.4927348,16.6184675 18.3038517,18.4868159 16.6874391,19.8034828 C14.8543336,21.2946711 12.4619259,22.020874 10.1075859,21.9995436 C7.89770787,21.9995436 5.70832784,21.2122582 3.9835688,19.845174 C1.67412913,18.0369385 0.187537157,15.2290834 0.0235532749,12.310698 C-0.120908716,10.2697673 0.404230143,8.1958715 1.45938833,6.44290114 C2.67072165,4.41457481 4.59460397,2.81285631 6.82497998,2.00133187 C7.20956123,1.87528865 7.65368424,1.88013646 8.01093484,2.08180562 C8.56828482,2.37170503 8.80157141,3.15802083 8.45505785,3.6893415 C8.2676477,4.02577994 7.92503852,4.24199255 7.56681183,4.36415752 C5.73468239,5.06515175 4.19245303,6.4729576 3.32763327,8.22301928 C2.61508426,9.62694687 2.36715625,11.2480566 2.59263409,12.801297 C2.87862978,14.8431972 4.00601897,16.7522672 5.65757092,18.0010647 C6.97432244,19.0035931 8.63465925,19.5746659 10.2979243,19.5281268 C12.2061891,19.5223094 14.1554499,18.8591282 15.5327193,17.5191918 C16.5234553,16.5447807 17.2633349,15.2688354 17.4243905,13.8775122 C17.656701,12.3756587 17.2516218,10.7710315 16.2355074,9.61919036 C15.5288149,8.83675282 14.6464255,8.14739334 13.5961478,7.90403296 C13.8430997,8.65447492 14.0695536,9.41170383 14.2842944,10.1718414 C14.5820032,11.2955652 14.5937164,12.5521192 14.0187967,13.5943997 C13.4048332,14.7685408 12.2061891,15.622726 10.8855332,15.8069431 C9.63613224,16.0231557 8.29888273,15.5926696 7.39599528,14.7113366 C6.52629505,13.8920556 6.02751075,12.7159754 5.98553868,11.5311691 C5.89866627,10.4074453 6.13585724,9.24978676 6.72932272,8.28216263 C7.51995929,6.95676966 8.8933243,6.04150195 10.3711314,5.62943757 C10.1856735,4.82470007 9.82451848,4.0374147 9.88308415,3.1958338 M8.60830469,10.1631153 C8.33695041,11.1210438 8.42382283,12.3136066 9.21543549,13.0107226 C9.95433905,13.6787517 11.2388795,13.407274 11.7269267,12.5695713 C12.0324443,12.1012723 12.0383009,11.5108083 11.9280022,10.9814267 C11.6556718,9.97889833 11.3423455,8.98703512 11.0221865,7.9980806 C9.96117172,8.32773211 8.92748761,9.05684367 8.60830469,10.1631153 Z" id="Mask"></path>
        </g>
    </g>
</svg>