<?xml version="1.0" encoding="UTF-8"?>
<svg width="24px" height="24px" viewBox="0 0 24 24" version="1.1" xmlns="http://www.w3.org/2000/svg" xmlns:xlink="http://www.w3.org/1999/xlink">
    <title>icon/24/omusic</title>
    <g id="icon/24/omusic" stroke="none" stroke-width="1" fill="none" fill-rule="evenodd">
        <path d="M11.5001352,3.01364679 L11.5004142,4.51637502 C7.59120245,4.77346558 4.5,8.02573828 4.5,12 C4.5,16.1421356 7.85786438,19.5 12,19.5 C16.1421356,19.5 19.5,16.1421356 19.5,12 C19.5,10.0314456 18.7415807,8.24002949 17.5009965,6.90200612 L17.5006345,4.87603832 C19.6293025,6.52206404 21,9.10096024 21,12 C21,16.9705627 16.9705627,21 12,21 C7.02943725,21 3,16.9705627 3,12 C3,7.19717012 6.76207703,3.27302041 11.5001352,3.01364679 Z M14.5,3 C15.0522847,3 15.5,3.44771525 15.5,4 L15.5,12 C15.5,13.9329966 13.9329966,15.5 12,15.5 C10.0670034,15.5 8.5,13.9329966 8.5,12 C8.5,10.0670034 10.0670034,8.5 12,8.5 C12.537207,8.5 13.0461461,8.62102947 13.5010375,8.83730867 L13.5,4 C13.5,3.44771525 13.9477153,3 14.5,3 Z" id="Combined-Shape" fill="#333333" fill-rule="nonzero"></path>
    </g>
</svg>