<?xml version="1.0" encoding="UTF-8"?>
<svg width="24px" height="24px" viewBox="0 0 24 24" version="1.1" xmlns="http://www.w3.org/2000/svg" xmlns:xlink="http://www.w3.org/1999/xlink">
    <title>icon/24/qMarkRight</title>
    <g id="icon/24/qMarkRight" stroke="none" stroke-width="1" fill="none" fill-rule="evenodd">
        <path d="M15.88,17.2 C16.64,17.2 17.24,16.96 17.72,16.52 C18.2,16.04 18.48,15.44 18.48,14.72 C18.48,14 18.24,13.44 17.8,12.96 C17.32,12.48 16.72,12.28 16.04,12.28 C15.64,12.28 15.32,12.32 15.16,12.4 C15.16,11.44 15.44,10.56 16.04,9.8 C16.68,8.92 17.52,8.32 18.6,8 L18.6,6 C16.84,6.44 15.48,7.32 14.44,8.64 C13.4,9.92 12.92,11.48 12.92,13.28 C12.92,14.4 13.16,15.36 13.68,16.08 C14.24,16.8 14.96,17.2 15.88,17.2 Z M7.96,17.2 C8.76,17.2 9.4,16.96 9.88,16.52 C10.32,16.04 10.56,15.44 10.56,14.72 C10.56,14 10.32,13.44 9.84,12.96 C9.36,12.48 8.8,12.28 8.16,12.28 C7.72,12.28 7.4,12.32 7.24,12.4 C7.24,11.44 7.52,10.56 8.16,9.76 C8.76,8.92 9.6,8.32 10.68,8 L10.68,6 C8.92,6.44 7.56,7.32 6.56,8.64 C5.52,9.92 5,11.48 5,13.28 C5,14.44 5.24,15.36 5.8,16.08 C6.32,16.8 7.04,17.2 7.96,17.2 Z" id="“" fill="#0091FF" fill-rule="nonzero" transform="translate(11.800000, 11.600000) scale(-1, -1) translate(-11.800000, -11.600000) "></path>
    </g>
</svg>