<?xml version="1.0" encoding="UTF-8"?>
<svg width="24px" height="24px" viewBox="0 0 24 24" version="1.1" xmlns="http://www.w3.org/2000/svg" xmlns:xlink="http://www.w3.org/1999/xlink">
    <title>icon/24/refresh</title>
    <g id="icon/24/refresh" stroke="none" stroke-width="1" fill="none" fill-rule="evenodd">
        <path d="M4.8492424,11.8492424 C4.8492424,15.6346941 7.85402579,18.7183411 11.6085927,18.8451834 L11.8492424,18.8492424 L11.8492424,20.8492424 C6.96743971,20.8492424 2.99345098,16.9624287 2.85307951,12.1146047 L2.8492424,11.8492424 L4.8492424,11.8492424 Z M11.8492424,2.8492424 C16.7310451,2.8492424 20.7050338,6.73605608 20.8454053,11.5838802 L20.8492424,11.8492424 L23.8492424,11.8492424 L19.8492424,15.8492424 L15.8492424,11.8492424 L18.8492424,11.8492424 C18.8492424,8.06379068 15.844459,4.98014372 12.0898922,4.85330142 L11.8492424,4.8492424 L11.8492424,2.8492424 Z M3.8492424,7.8492424 L7.8492424,11.8492424 L-0.150757595,11.8492424 L3.8492424,7.8492424 Z" id="Mask" fill="#0091FF" fill-rule="nonzero" transform="translate(11.849242, 11.849242) rotate(-315.000000) translate(-11.849242, -11.849242) "></path>
    </g>
</svg>