<?xml version="1.0" encoding="UTF-8"?>
<svg width="24px" height="24px" viewBox="0 0 24 24" version="1.1" xmlns="http://www.w3.org/2000/svg" xmlns:xlink="http://www.w3.org/1999/xlink">
    <title>icon/24/reservation</title>
    <g id="icon/24/reservation" stroke="none" stroke-width="1" fill="none" fill-rule="evenodd">
        <g id="Group" transform="translate(3.000000, 2.500000)" fill="#333333">
            <path d="M6,0.5 L6,1.5 L12,1.5 L12,0.5 L15,0.5 L15,1.5 L16,1.5 C17.0543618,1.5 17.9181651,2.31587779 17.9945143,3.35073766 L18,3.5 L18,9.5 L16.5,9.5 L16.5,6.5 L1.5,6.5 L1.5,17 L9,17 L9,18.5 L2,18.5 C0.945638205,18.5 0.0818348781,17.6841222 0.00548573643,16.6492623 L0,16.5 L0,3.5 C-1.2912208e-16,2.4456382 0.815877791,1.58183488 1.85073766,1.50548574 L2,1.5 L3,1.5 L3,0.5 L6,0.5 Z M18.7071068,11.7928932 C19.0675907,12.1533772 19.0953203,12.7206082 18.7902954,13.1128994 L18.7071068,13.2071068 L13.7071068,18.2071068 C13.3466228,18.5675907 12.7793918,18.5953203 12.3871006,18.2902954 L12.2928932,18.2071068 L9.29289322,15.2071068 C8.90236893,14.8165825 8.90236893,14.1834175 9.29289322,13.7928932 C9.65337718,13.4324093 10.2206082,13.4046797 10.6128994,13.7097046 L10.7071068,13.7928932 L13,16.085 L17.2928932,11.7928932 C17.6834175,11.4023689 18.3165825,11.4023689 18.7071068,11.7928932 Z M6,12.5 L6,15.5 L3,15.5 L3,12.5 L6,12.5 Z M6,8 L6,11 L3,11 L3,8 L6,8 Z M10.5,8 L10.5,11 L7.5,11 L7.5,8 L10.5,8 Z" id="Combined-Shape"></path>
        </g>
    </g>
</svg>