<?xml version="1.0" encoding="UTF-8"?>
<svg width="24px" height="24px" viewBox="0 0 24 24" version="1.1" xmlns="http://www.w3.org/2000/svg" xmlns:xlink="http://www.w3.org/1999/xlink">
    <title>icon/24/settings</title>
    <g id="icon/24/settings" stroke="none" stroke-width="1" fill="none" fill-rule="evenodd">
        <path d="M10,16 C11.1045695,16 12,16.8954305 12,18 C12,19.1045695 11.1045695,20 10,20 C8.8954305,20 8,19.1045695 8,18 C8,16.8954305 8.8954305,16 10,16 Z M21,17 C21.5522847,17 22,17.4477153 22,18 C22,18.5522847 21.5522847,19 21,19 L21,19 L14,19 L14,17 Z M6,17 L6,19 L3,19 C2.44771525,19 2,18.5522847 2,18 C2,17.4477153 2.44771525,17 3,17 L6,17 Z M14,10 C15.1045695,10 16,10.8954305 16,12 C16,13.1045695 15.1045695,14 14,14 C12.8954305,14 12,13.1045695 12,12 C12,10.8954305 12.8954305,10 14,10 Z M10,11 L10,13 L3,13 C2.44771525,13 2,12.5522847 2,12 C2,11.4477153 2.44771525,11 3,11 L10,11 Z M21,11 C21.5522847,11 22,11.4477153 22,12 C22,12.5522847 21.5522847,13 21,13 L21,13 L18,13 L18,11 Z M4,4 C5.1045695,4 6,4.8954305 6,6 C6,7.1045695 5.1045695,8 4,8 C2.8954305,8 2,7.1045695 2,6 C2,4.8954305 2.8954305,4 4,4 Z M21,5 C21.5522847,5 22,5.44771525 22,6 C22,6.55228475 21.5522847,7 21,7 L8,7 L8,5 L21,5 Z" id="Mask" fill="#0091FF"></path>
    </g>
</svg>