<?xml version="1.0" encoding="UTF-8"?>
<svg width="24px" height="24px" viewBox="0 0 24 24" version="1.1" xmlns="http://www.w3.org/2000/svg" xmlns:xlink="http://www.w3.org/1999/xlink">
    <title>icon/24/sound-off copy</title>
    <g id="icon/24/sound-off-copy" stroke="none" stroke-width="1" fill="none" fill-rule="evenodd">
        <path d="M6,7 L12.5527864,3.7236068 C13.0467649,3.47661755 13.6474379,3.6768419 13.8944272,4.17082039 C13.9638549,4.30967583 14,4.46278889 14,4.61803399 L14,19.381966 C14,19.9342508 13.5522847,20.381966 13,20.381966 C12.8447549,20.381966 12.6916418,20.3458209 12.5527864,20.2763932 L6,17 L3,17 C2.44771525,17 2,16.5522847 2,16 L2,8 C2,7.44771525 2.44771525,7 3,7 L6,7 Z" id="Path-5" fill="#0091FF"></path>
        <path d="M16.3767322,7.88661168 C17.8332915,8.72974791 18.75,10.2854246 18.75,12 C18.75,13.6366402 17.9147346,15.1284986 16.5719724,15.9940506 L16.3767322,16.1133883 L15.6252679,14.8151968 C16.6231492,14.2375684 17.25,13.1737874 17.25,12 C17.25,10.8952589 16.6947273,9.88796295 15.797461,9.29170767 L15.6252679,9.18480325 L16.3767322,7.88661168 Z" id="Path" fill="#0091FF"></path>
        <path d="M18.9299578,5.64016736 C20.993906,7.08024392 22.2499998,9.43498146 22.2499998,12 C22.2499998,14.4700179 21.085227,16.7450426 19.1559381,18.1960959 L18.9299578,18.3598326 L18.0716402,17.1296737 C19.7376727,15.9672345 20.7499998,14.0694745 20.7499998,12 C20.7499998,10.0205027 19.8237875,8.19811269 18.2852121,7.02607251 L18.0716402,6.87032627 L18.9299578,5.64016736 Z" id="Path" fill="#0091FF"></path>
    </g>
</svg>