<?xml version="1.0" encoding="UTF-8"?>
<svg width="24px" height="24px" viewBox="0 0 24 24" version="1.1" xmlns="http://www.w3.org/2000/svg" xmlns:xlink="http://www.w3.org/1999/xlink">
    <title>icon/24/talble</title>
    <g id="icon/24/talble" stroke="none" stroke-width="1" fill="none" fill-rule="evenodd">
        <path d="M19.5,2 C20.3284271,2 21,2.67157288 21,3.5 L21,21.5 C21,22.3284271 20.3284271,23 19.5,23 L4.5,23 C3.67157288,23 3,22.3284271 3,21.5 L3,3.5 C3,2.67157288 3.67157288,2 4.5,2 L19.5,2 Z M19.5,3.5 L4.5,3.5 L4.5,21.5 L19.5,21.5 L19.5,3.5 Z M13.5,12.5 L13.5,15.5 L7.5,15.5 L7.5,12.5 L13.5,12.5 Z M16.5,6.5 L16.5,9.5 L7.5,9.5 L7.5,6.5 L16.5,6.5 Z" id="Mask" fill="#0091FF" fill-rule="nonzero"></path>
    </g>
</svg>