<?xml version="1.0" encoding="UTF-8"?>
<svg width="24px" height="24px" viewBox="0 0 24 24" version="1.1" xmlns="http://www.w3.org/2000/svg" xmlns:xlink="http://www.w3.org/1999/xlink">
    <title>icon/24/ticket</title>
    <g id="icon/24/ticket" stroke="none" stroke-width="1" fill="none" fill-rule="evenodd">
        <path d="M20.0606602,4.75 L23.0606602,7.75 L20.8106602,10 L23.0606602,12.25 L20.8106602,14.5 L23.0606602,16.75 L20.0606602,19.75 L4,19.75 C2.75735931,19.75 1.75,18.7426407 1.75,17.5 L1.75,7 C1.75,5.75735931 2.75735931,4.75 4,4.75 L20.0606602,4.75 Z M19.4393398,6.25 L4,6.25 C3.58578644,6.25 3.25,6.58578644 3.25,7 L3.25,17.5 C3.25,17.9142136 3.58578644,18.25 4,18.25 L19.4393398,18.25 L20.9393398,16.75 L18.6893398,14.5 L20.9393398,12.25 L18.6893398,10 L20.9393398,7.75 L19.4393398,6.25 Z M14.5,13.75 L14.5,15.25 L7,15.25 L7,13.75 L14.5,13.75 Z M14.5,9.25 L14.5,10.75 L7,10.75 L7,9.25 L14.5,9.25 Z" id="Mask" fill="#0091FF" fill-rule="nonzero"></path>
    </g>
</svg>