<?xml version="1.0" encoding="UTF-8"?>
<svg width="24px" height="24px" viewBox="0 0 24 24" version="1.1" xmlns="http://www.w3.org/2000/svg" xmlns:xlink="http://www.w3.org/1999/xlink">
    <title>icon/24/toc_</title>
    <g id="icon/24/toc_" stroke="none" stroke-width="1" fill="none" fill-rule="evenodd">
        <path d="M4.5,16.5 C5.32842712,16.5 6,17.1715729 6,18 C6,18.8284271 5.32842712,19.5 4.5,19.5 C3.67157288,19.5 3,18.8284271 3,18 C3,17.1715729 3.67157288,16.5 4.5,16.5 Z M16,17 C16.5522847,17 17,17.4477153 17,18 C17,18.5522847 16.5522847,19 16,19 L9,19 C8.44771525,19 8,18.5522847 8,18 C8,17.4477153 8.44771525,17 9,17 L16,17 Z M4.5,10.5 C5.32842712,10.5 6,11.1715729 6,12 C6,12.8284271 5.32842712,13.5 4.5,13.5 C3.67157288,13.5 3,12.8284271 3,12 C3,11.1715729 3.67157288,10.5 4.5,10.5 Z M20,11 C20.5522847,11 21,11.4477153 21,12 C21,12.5522847 20.5522847,13 20,13 L9,13 C8.44771525,13 8,12.5522847 8,12 C8,11.4477153 8.44771525,11 9,11 L20,11 Z M4.5,4.5 C5.32842712,4.5 6,5.17157288 6,6 C6,6.82842712 5.32842712,7.5 4.5,7.5 C3.67157288,7.5 3,6.82842712 3,6 C3,5.17157288 3.67157288,4.5 4.5,4.5 Z M20,4.875 C20.5522847,4.875 21,5.32271525 21,5.875 C21,6.42728475 20.5522847,6.875 20,6.875 L9,6.875 C8.44771525,6.875 8,6.42728475 8,5.875 C8,5.32271525 8.44771525,4.875 9,4.875 L20,4.875 Z" id="Combined-Shape" fill="#0091FF"></path>
    </g>
</svg>