<?xml version="1.0" encoding="UTF-8"?>
<svg width="24px" height="24px" viewBox="0 0 24 24" version="1.1" xmlns="http://www.w3.org/2000/svg" xmlns:xlink="http://www.w3.org/1999/xlink">
    <title>icon/24/towBottlesOfWine</title>
    <g id="icon/24/towBottlesOfWine" stroke="none" stroke-width="1" fill="none" fill-rule="evenodd">
        <path d="M15.5,2 C15.7761424,2 16,2.22385763 16,2.5 L16,7.04743758 C16,8.21895774 16.3813878,9.35604998 17.0825459,10.2885235 L17.25,10.5 C18.0576804,11.4692165 18.5,12.6909253 18.5,13.9525624 L18.5,21.5 C18.5,21.7761424 18.2761424,22 18,22 L15.5,22 L15.5,20.499 L17,20.5 L17,13.9525624 C17,13.1177244 16.7317033,12.3071056 16.2379005,11.638896 L16.0976681,11.4602766 C15.7240284,11.011909 15.4115634,10.5212648 15.1649371,10.0012261 L13.8815268,10.0023148 C13.3608723,9.20738982 13.0583278,8.28694882 13.0076226,7.33415361 L13,7.04743758 L13,2.5 C13,2.22385763 13.2238576,2 13.5,2 L15.5,2 Z M10.5,2 C10.7761424,2 11,2.22385763 11,2.5 L11,7.04743758 C11,8.21895774 11.3813878,9.35604998 12.0825459,10.2885235 L12.25,10.5 C13.0576804,11.4692165 13.5,12.6909253 13.5,13.9525624 L13.5,21.5 C13.5,21.7761424 13.2761424,22 13,22 L6,22 C5.72385763,22 5.5,21.7761424 5.5,21.5 L5.5,13.9525624 C5.5,12.7810423 5.88138783,11.64395 6.58254593,10.7114765 L6.75,10.5 C7.55768039,9.53078354 8,8.30907468 8,7.04743758 L8,2.5 C8,2.22385763 8.22385763,2 8.5,2 L10.5,2 Z M10.1649371,10.0012261 L8.83506287,10.0012261 C8.63102409,10.4314643 8.38192156,10.8415832 8.09039626,11.2242881 L7.90233192,11.4602766 C7.36788167,12.1016169 7.05504742,12.8961109 7.00661984,13.7255686 L7,13.9525624 L7,15 L10,15 C10.2761424,15 10.5,15.2238576 10.5,15.5 L10.5,18.5 C10.5,18.7761424 10.2761424,19 10,19 L7,19 L7,20.5 L12,20.5 L12,13.9525624 C12,13.1177244 11.7317033,12.3071056 11.2379005,11.638896 L11.0976681,11.4602766 C10.7240284,11.011909 10.4115634,10.5212648 10.1649371,10.0012261 Z" id="Mask" fill="#0091FF" fill-rule="nonzero"></path>
    </g>
</svg>