<?xml version="1.0" encoding="UTF-8"?>
<svg width="24px" height="24px" viewBox="0 0 24 24" version="1.1" xmlns="http://www.w3.org/2000/svg" xmlns:xlink="http://www.w3.org/1999/xlink">
    <title>icon/24/wechatMoment</title>
    <g id="icon/24/wechatMoment" stroke="none" stroke-width="1" fill="none" fill-rule="evenodd">
        <path d="M9,14.707 L15.6176458,21.3255784 C14.495762,21.7610935 13.2757808,22 12,22 C10.9548381,22 9.9471258,21.8396596 9.00011922,21.5422352 L9,14.707 Z M8,11.706 L8.00059079,21.1681707 C5.89422459,20.2480228 4.16612515,18.6232529 3.11421947,16.591788 L8,11.706 Z M21.1677323,16.0004128 C20.2475067,18.1063243 18.6229303,19.8340419 16.591788,20.8857805 L11.707,16 Z M2.45776484,9.00011922 L9.292,9 L2.67480821,15.6186415 C2.23904785,14.4964839 2,13.2761582 2,12 C2,10.9548381 2.16034037,9.9471258 2.45776484,9.00011922 Z M21.3255784,8.3823542 C21.7610935,9.50423801 22,10.7242192 22,12 C22,13.0455304 21.8395465,14.0535849 21.5419205,15.0008825 L14.706,15 Z M16.0004128,2.83226775 C18.1063243,3.75249327 19.8340419,5.37706971 20.8857805,7.40821201 L16,12.292 Z M12,2 C13.0455304,2 14.0535849,2.16045347 15.0008825,2.45807951 L15,9.293 L8.38135847,2.67480821 C9.50351613,2.23904785 10.7238418,2 12,2 Z M7.40821201,3.11421947 L12.293,8 L2.83182926,8.00059079 C3.75197715,5.89422459 5.37674706,4.16612515 7.40821201,3.11421947 Z" id="Mask" fill="#0091FF"></path>
    </g>
</svg>