<?xml version="1.0" encoding="UTF-8"?>
<svg width="24px" height="24px" viewBox="0 0 24 24" version="1.1" xmlns="http://www.w3.org/2000/svg" xmlns:xlink="http://www.w3.org/1999/xlink">
    <title>icon/24/youhui</title>
    <g id="icon/24/youhui" stroke="none" stroke-width="1" fill="none" fill-rule="evenodd">
        <path d="M19,3 C20.0543618,3 20.9181651,3.81587779 20.9945143,4.85073766 L21,5 L21,10.1715729 C21,10.6430689 20.8335102,11.0973993 20.5330869,11.4559662 L20.4142136,11.5857864 L11.4142136,20.5857864 C10.6742728,21.3257272 9.49878864,21.3646715 8.71300121,20.7026192 L8.58578644,20.5857864 L3.41421356,15.4142136 C2.6742728,14.6742728 2.63532855,13.4987886 3.29738081,12.7130012 L3.41421356,12.5857864 L12.4142136,3.58578644 C12.7476116,3.25238843 13.1865978,3.04885439 13.6525743,3.00774062 L13.8284271,3 L19,3 Z M10.5,15 C9.67157288,15 9,15.6715729 9,16.5 C9,17.3284271 9.67157288,18 10.5,18 C11.3284271,18 12,17.3284271 12,16.5 C12,15.6715729 11.3284271,15 10.5,15 Z M10.5,16 C10.7761424,16 11,16.2238576 11,16.5 C11,16.7761424 10.7761424,17 10.5,17 C10.2238576,17 10,16.7761424 10,16.5 C10,16.2238576 10.2238576,16 10.5,16 Z M14,13 L6,13 L7,14 L15,14 L14,13 Z M10.5,9 C9.67157288,9 9,9.67157288 9,10.5 C9,11.3284271 9.67157288,12 10.5,12 C11.3284271,12 12,11.3284271 12,10.5 C12,9.67157288 11.3284271,9 10.5,9 Z M10.5,10 C10.7761424,10 11,10.2238576 11,10.5 C11,10.7761424 10.7761424,11 10.5,11 C10.2238576,11 10,10.7761424 10,10.5 C10,10.2238576 10.2238576,10 10.5,10 Z M18,4.5 C17.1715729,4.5 16.5,5.17157288 16.5,6 C16.5,6.82842712 17.1715729,7.5 18,7.5 C18.8284271,7.5 19.5,6.82842712 19.5,6 C19.5,5.17157288 18.8284271,4.5 18,4.5 Z" id="Shape" fill="#333333"></path>
    </g>
</svg>