<?xml version="1.0" encoding="UTF-8"?>
<svg width="24px" height="24px" viewBox="0 0 24 24" version="1.1" xmlns="http://www.w3.org/2000/svg" xmlns:xlink="http://www.w3.org/1999/xlink">
    <title>icon/24/costellation/1-Aries</title>
    <g id="icon/24/costellation/1-Aries" stroke="none" stroke-width="1" fill="none" fill-rule="evenodd">
        <path d="M16.7025768,2.69399181 C14.6048615,2.78813144 13.1125707,4.52214465 12.108784,7.77841345 L11.999,8.147 L11.9880552,8.107792 C10.9551939,4.53954063 9.37794878,2.68994141 7.11547852,2.68994141 C5.88127611,2.68994141 4.86272264,3.20391916 4.1590758,4.19022755 C3.51910233,5.08728437 3.2019043,6.16087773 3.2019043,7.38134766 C3.2019043,8.65509281 3.47767951,9.84176191 4.02934264,10.9283711 L4.47450749,11.7563477 L8.0306419,11.7563477 L7.2299059,10.2796657 C6.65268318,9.21517704 6.4473167,8.18289241 6.59569634,7.15509193 C6.71297709,6.34270822 6.87346507,6.14013672 7.08911133,6.14013672 C7.34875024,6.14013672 7.73145401,6.55706604 8.161681,7.42930726 L8.32509623,7.77781542 C8.57311793,8.33281669 8.83318854,9.03339954 9.09186327,9.88639525 C9.92108268,12.6207968 10.3591041,16.1136343 10.3973952,20.3585296 L10.4046099,21.9736328 L13.6130371,21.9736328 L13.6130371,20.9736328 C13.6130371,16.4503007 14.0522763,12.7521208 14.9213203,9.88639525 C15.007495,9.60222899 15.0937992,9.33496069 15.1797272,9.08434346 L15.3509318,8.6052373 C15.3793324,8.52906212 15.4076537,8.45471879 15.4358771,8.38219814 L15.6038916,7.96887336 C16.1312656,6.72881048 16.6097485,6.14013672 16.9108887,6.14013672 C17.1061797,6.14013672 17.2524256,6.29119337 17.3622567,6.8590337 L17.4104083,7.15167555 C17.5440253,8.10035664 17.3781007,9.0515893 16.8996838,10.0285335 L16.007918,11.7563477 L19.5095441,11.7563477 L19.7971423,11.2508719 C20.4640726,10.0786914 20.7980957,8.78308679 20.7980957,7.38134766 C20.7980957,6.16233978 20.483994,5.09006154 19.8498629,4.19353137 C19.1501324,3.20425724 18.1277729,2.68994141 16.8845215,2.68994141 L16.7025768,2.69399181 Z" id="Path" fill="#FF4747"></path>
    </g>
</svg>