<?xml version="1.0" encoding="UTF-8"?>
<svg width="24px" height="24px" viewBox="0 0 24 24" version="1.1" xmlns="http://www.w3.org/2000/svg" xmlns:xlink="http://www.w3.org/1999/xlink">
    <title>icon/24/costellation/10-Capricornus</title>
    <g id="icon/24/costellation/10-Capricornus" stroke="none" stroke-width="1" fill="none" fill-rule="evenodd">
        <path d="M11.1978268,3.03417969 C12.4789001,3.03417969 13.1661273,4.29038624 13.5804677,6.82101777 L13.6681818,7.40436593 L13.7476948,8.02971489 C13.760307,8.13744225 13.7726101,8.2469215 13.7846204,8.35815356 L13.9433299,9.88624672 L14.0218678,10.5855015 L14.0973071,11.2097524 L14.1647895,11.7285292 L14.2544524,11.6387142 C15.007605,10.9147454 15.9044484,10.4898933 16.9326947,10.3861216 L17.1924867,10.3668805 L17.4385874,10.3610596 C18.6727339,10.3610596 19.7097369,10.8291072 20.4821806,11.7355704 C21.2108054,12.5906122 21.5876465,13.5178545 21.5876465,14.4965525 C21.5876465,15.775988 21.2418485,16.8332681 20.5317688,17.6373697 C19.7860005,18.4818854 18.6870551,18.8967045 17.3061184,18.8967045 C16.3831501,18.8967045 15.5209405,18.6647987 14.7291369,18.2109762 L14.4678233,18.0514967 L14.3791471,17.9908375 L14.3727812,18.0089605 C14.1825391,18.5189427 13.9753266,18.9900977 13.7507403,19.4224967 L13.5790368,19.7395303 L13.4007802,20.0420371 C12.7858676,21.0420626 11.8015798,21.6024638 10.516773,21.6976273 L10.2558252,21.7104492 L7.38729946,21.7104492 L7.38729946,18.7806992 L10.0085506,18.7633313 L10.0682801,18.7597151 C10.3200413,18.7264476 10.6585872,18.3439831 11.0311976,17.6085139 L11.2053984,17.2439873 C11.3816341,16.8543676 11.5633984,16.3894268 11.745508,15.8487907 L11.885006,15.4170257 L11.8363927,15.3335298 C11.5820477,14.8683311 11.4068555,14.1444454 11.2596789,13.0846977 L11.1881885,12.5264781 L11.1199469,11.9101377 L11.0238655,10.9088282 L10.9687119,10.2777446 L10.8968349,9.54797297 C10.8349399,8.97058761 10.7681186,8.47027299 10.6968761,8.04835399 L10.6536042,7.80462067 L10.6345861,7.70932546 L10.6166898,7.75425553 C10.5588402,7.89543268 10.4985378,8.04818337 10.4358465,8.21240864 L10.24067,8.73940917 L10.1378265,9.02854164 C9.57120315,10.6413127 9.28591962,12.136731 9.27774948,13.5151791 L9.28238866,13.8882197 L9.3073501,14.6913947 L5.72114463,14.7440131 L5.70114898,13.3826737 C5.65188656,11.7143813 5.38091376,10.0621862 4.88773834,8.42461758 C4.43148574,6.90964964 3.87563348,6.19773588 3.30601365,6.10454533 L3.21096425,6.09471089 L2.41235352,6.05972096 L2.41235352,3.38816195 L3.54474365,3.41797961 C4.85197813,3.48721626 5.91449579,4.02547401 6.66520688,5.00503605 C6.94449906,5.36946922 7.19238182,5.81943722 7.41115497,6.35632023 L7.51812638,6.63201104 L7.55431068,6.73622171 L7.65280002,6.51947409 L7.69715632,6.42815338 L7.78581793,6.25745192 C8.14882032,5.49965383 8.59873375,4.80775279 9.13511874,4.18338083 C9.76911641,3.44538411 10.4473702,3.03417969 11.1978268,3.03417969 Z M17.3511273,13.2848613 L17.2626523,13.2888575 C16.6109213,13.3461772 16.0665138,13.8376236 15.6242575,14.8900682 L15.589375,14.9774913 L15.6236116,15.0217373 C16.10798,15.6139654 16.6241256,15.9094233 17.1936194,15.9545536 L17.3502747,15.9606903 C18.1572305,15.9606903 18.5089295,15.5727784 18.5594779,14.5272437 C18.5287426,13.7767977 18.2223843,13.4218377 17.4677964,13.3004871 L17.3511273,13.2848613 Z" id="♑" fill="#FF4747"></path>
    </g>
</svg>