<?xml version="1.0" encoding="UTF-8"?>
<svg width="24px" height="24px" viewBox="0 0 24 24" version="1.1" xmlns="http://www.w3.org/2000/svg" xmlns:xlink="http://www.w3.org/1999/xlink">
    <title>icon/24/costellation/11-Aquarius</title>
    <g id="icon/24/costellation/11-Aquarius" stroke="none" stroke-width="1" fill="none" fill-rule="evenodd">
        <path d="M13.2536483,6.84423828 C14.0580754,6.84423828 14.6266264,7.35353444 14.8703809,8.11575587 C14.9571612,8.33837445 15.0381464,8.4038505 15.3694822,8.19234582 L15.5571985,8.06295694 L15.7937551,7.88407576 C15.8376465,7.84995294 15.8838694,7.81362924 15.932572,7.7750353 C16.3720229,7.41804783 16.8483884,7.22128095 17.3520542,7.22128095 C18.68285,7.22128095 19.6684868,8.44043867 20.5287202,10.731396 L20.6356121,11.0233373 L20.8730904,11.6881527 L18.8950835,12.7238621 C19.5005876,13.2996314 20.0267557,14.2460512 20.5144629,15.5369887 L20.6356121,15.8668854 L20.8730904,16.5317009 L18.36269,17.8466062 L17.9737672,16.7461216 L17.8492569,16.4257979 C17.4665855,15.5017097 17.1818227,15.4235773 16.641615,15.8604738 L16.5541448,15.9336893 C15.7989332,16.5748907 15.1341619,16.9196562 14.4883767,16.9196562 C13.7386371,16.9196562 13.1953517,16.4713149 12.8993885,15.7571249 L12.8354983,15.5876757 C12.7274921,15.2912112 12.6499792,15.2192329 12.2522973,15.4951511 L12.044741,15.6476501 L11.7840558,15.8522508 C11.0322178,16.4433037 10.3756796,16.7601382 9.75029229,16.7601382 C9.0057645,16.7601382 8.4571427,16.3280113 8.16612292,15.6330658 L8.08034479,15.4023061 L8.05272207,15.3081941 L8.0626826,15.2972809 C7.93209159,15.2976876 7.65135605,15.4286304 7.26385211,15.7211768 L5.61834259,17.0287517 L5.27006013,17.2892058 C5.2578547,17.2975901 5.24334432,17.3074045 5.22157874,17.3221261 L5.20093972,17.3450362 L5.16387485,17.3649721 L5.08569609,17.3897624 L4.70724478,17.4852202 L4.20717358,17.4852202 L3.2956543,15.8717716 L3.2956543,15.2417152 L3.88842338,14.7650388 L4.47151513,14.307416 C6.45435914,12.7791496 7.83436909,12.0213241 8.79821252,12.0213241 C9.4212468,12.0213241 9.92550978,12.3251214 10.155961,12.8472072 L10.2077797,12.9822269 C10.2825263,13.1924927 10.342714,13.2543356 10.664197,13.0383545 L10.8479902,12.9066129 L11.2220967,12.6143176 C11.9644124,12.0211838 12.6252221,11.702288 13.2610864,11.702288 C13.3311933,11.702288 13.3995484,11.7061727 13.4660985,11.7137912 C13.2317447,11.5225818 13.0414883,11.2585888 12.898435,10.9372261 L12.7713561,10.6193602 C12.6843345,10.4328333 12.5792133,10.4176187 12.2455395,10.6476529 L12.0396043,10.7978928 L11.7807468,10.9994434 C11.0375366,11.6051688 10.3754081,11.9310917 9.73541604,11.9310917 C8.99207408,11.9310917 8.45197424,11.4902612 8.16453079,10.7886157 L8.10270521,10.6221496 C8.03430883,10.4297473 7.98282512,10.3618406 7.73380615,10.5171194 L7.57709841,10.6245442 L7.25165591,10.8764696 L5.73433437,12.0932247 L5.30632707,12.4198591 L5.22319284,12.4774043 L5.20263429,12.5004233 C5.19851663,12.5037934 5.19370938,12.50704 5.1876966,12.5103271 L5.08710161,12.5454434 L4.70724478,12.6416721 L4.20717358,12.6416721 L3.2956543,11.0282235 L3.2956543,10.3981671 L3.88842338,9.92149067 L4.47151513,9.46386787 L5.0217996,9.04817383 C6.71344343,7.79812753 7.92616371,7.17777602 8.79821252,7.17777602 C9.45843609,7.17777602 9.98394907,7.52762565 10.2069195,8.13627098 L10.260901,8.30600793 L10.3139847,8.3027237 C10.4434878,8.27790238 10.6540689,8.17771676 10.9252006,7.99136309 L11.0657174,7.89095556 L11.2157557,7.77588659 C11.9590772,7.17007043 12.6177444,6.84423828 13.2536483,6.84423828 Z M18.0779171,12.1929774 L17.9099,11.73166 C17.4945083,10.6568227 17.208941,10.5438698 16.6464324,10.9983115 L16.5599282,11.0706839 C15.8037596,11.7245871 15.1415641,12.0761081 14.4958149,12.0761081 C14.4250428,12.0761081 14.3560534,12.0721476 14.2888777,12.0643618 C14.5107194,12.2451142 14.688279,12.4909263 14.817272,12.7858521 L14.8888055,12.9685737 C14.9789857,13.2085424 15.0566569,13.2650057 15.4637681,12.9776945 L15.6763029,12.8200957 L15.943093,12.6101754 C16.3905153,12.2584371 16.8671776,12.0648291 17.3669304,12.0648291 C17.6155809,12.0648291 17.8520778,12.1078639 18.0779171,12.1929774 Z" id="♒" fill="#FF4747"></path>
    </g>
</svg>