<?xml version="1.0" encoding="UTF-8"?>
<svg width="24px" height="24px" viewBox="0 0 24 24" version="1.1" xmlns="http://www.w3.org/2000/svg" xmlns:xlink="http://www.w3.org/1999/xlink">
    <title>icon/24/costellation/12-Pisces</title>
    <g id="icon/24/costellation/12-Pisces" stroke="none" stroke-width="1" fill="none" fill-rule="evenodd">
        <path d="M19.1985573,4.516138 L20.644496,2.82639106 L16.6062379,2.91067159 L16.373679,3.17754238 L16.0731815,3.53002827 C14.31231,5.64226031 13.2075274,7.82339514 12.7718489,10.0691475 L12.697,10.496 L11.313,10.496 L11.3090716,10.4658477 C10.9250022,8.08025294 9.79596019,5.76535795 7.93710219,3.52791748 L7.41299844,2.91074596 L3.33584475,2.82639106 L4.52124021,4.18871121 L4.81010828,4.52640989 C6.50775155,6.54600216 7.56548171,8.4466942 7.99728039,10.2228705 L8.058,10.496 L4.77299805,10.496875 L4.77299805,14.0875977 L8.062,14.087 C7.6815969,15.9509162 6.60169638,17.9451863 4.80422414,20.067367 L3.35837551,21.7453384 L7.40655424,21.6895015 L7.64149629,21.4178195 L7.94062948,21.0643017 C9.7968126,18.8214895 10.9245175,16.505308 11.3087619,14.1205541 L11.314,14.077 L12.685,14.057 L12.7424077,14.3947465 C13.170181,16.7145435 14.2804609,18.9255522 16.0618784,21.0687175 L16.589276,21.6894439 L20.6570796,21.7455516 L19.4779131,20.39479 L19.1890226,20.0581439 C17.491097,18.0445678 16.4304377,16.144503 15.9932172,14.3632648 L15.931,14.087 L19.2085379,14.0875977 L19.2323175,10.496875 L15.95,10.496 L16.0163324,10.2037617 C16.4459074,8.43058234 17.5014615,6.53329041 19.1985573,4.516138 Z" id="♓" fill="#FF4747"></path>
    </g>
</svg>