<?xml version="1.0" encoding="UTF-8"?>
<svg width="24px" height="24px" viewBox="0 0 24 24" version="1.1" xmlns="http://www.w3.org/2000/svg" xmlns:xlink="http://www.w3.org/1999/xlink">
    <title>icon/24/costellation/2-Taurus</title>
    <g id="icon/24/costellation/2-Taurus" stroke="none" stroke-width="1" fill="none" fill-rule="evenodd">
        <path d="M3.58422852,7.08935547 L3.58422852,3.91072563 L4.88236321,3.93466909 C6.22639262,3.98477467 7.31195133,4.3826821 8.09036355,5.15565089 C8.73541906,5.79619552 9.21521297,6.46512023 9.52155321,7.16471834 L9.62828416,7.42850992 C9.80792558,7.91190866 10.1103509,8.33039996 10.5569221,8.70145987 C10.8927748,8.98608085 11.3735913,9.15041051 11.9534402,9.17706857 C12.6204102,9.15038977 13.0987029,8.98692262 13.4431782,8.69039817 C13.8475732,8.35952953 14.1722484,7.98057546 14.4215243,7.54952628 L14.539899,7.32964187 C14.9043639,6.6007121 15.3872523,5.89345129 15.9862684,5.20748117 C16.6988377,4.39147439 17.7683336,3.98199033 19.1378787,3.93399234 L19.4157715,3.92919922 L20.4157715,3.92919922 L20.4157715,7.0472969 L19.3489222,7.09219799 C19.0174106,7.12098597 18.6715039,7.40230492 18.3162077,8.05349735 L18.2271909,8.22406906 C17.794338,9.08977471 17.2735177,9.8667992 16.671955,10.5468907 L16.4092201,10.8323998 L16.251,10.991 L16.3555491,11.0952131 C17.3751576,12.2058581 17.9500581,13.5307568 18.0712166,15.0358802 L18.0893957,15.3392978 L18.095459,15.6474609 C18.095459,17.4099373 17.5045511,18.9421144 16.3365673,20.1927873 C15.155765,21.4571862 13.6877533,22.1054688 11.9934082,22.1054688 C10.3073473,22.1054688 8.84391128,21.4568396 7.66343273,20.1927873 C6.49544893,18.9421144 5.90454102,17.4099373 5.90454102,15.6474609 C5.90454102,13.989697 6.42723752,12.5322455 7.465394,11.3121058 L7.66608712,11.0861197 L7.763,10.987 L7.55663151,10.7768022 C7.06264608,10.2501404 6.61986901,9.66646274 6.22852439,9.02679909 L5.9998913,8.63629082 L5.78361276,8.23239536 C5.39235934,7.46780854 5.02313389,7.13758836 4.66634741,7.094315 L4.58422852,7.08935547 L3.58422852,7.08935547 Z M11.9934082,12.7978516 C11.2802815,12.7978516 10.7011921,13.0542193 10.1946447,13.5992386 C9.67408601,14.1593334 9.4206543,14.8185766 9.4206543,15.6276855 C9.4206543,16.4360044 9.6734898,17.0920965 10.1926383,17.6473882 C10.6993509,18.1893783 11.2771542,18.4443359 11.9868164,18.4443359 C12.6973465,18.4443359 13.2783675,18.1886261 13.7897399,17.645092 C14.3120871,17.0898928 14.5661621,16.4347308 14.5661621,15.6276855 C14.5661621,14.817301 14.3139759,14.1571193 13.7966123,13.5969166 C13.2951777,13.053962 12.715163,12.7978516 11.9934082,12.7978516 Z" id="♉" fill="#FF4747"></path>
    </g>
</svg>