<?xml version="1.0" encoding="UTF-8"?>
<svg width="24px" height="24px" viewBox="0 0 24 24" version="1.1" xmlns="http://www.w3.org/2000/svg" xmlns:xlink="http://www.w3.org/1999/xlink">
    <title>icon/24/costellation/4-Cancer</title>
    <g id="icon/24/costellation/4-Cancer" stroke="none" stroke-width="1" fill="none" fill-rule="evenodd">
        <path d="M16.0317699,10.717285 C17.4822942,10.717285 18.7307307,11.2398288 19.721695,12.2534546 C20.691201,13.2451312 21.1789551,14.4512543 21.1789551,15.8376463 C21.1789551,17.2248964 20.6880425,18.431689 19.7262509,19.4093374 C19.0335791,20.1499879 18.1115213,20.6985746 16.9766727,21.0540009 C15.8948885,21.3928077 14.8123391,21.5679735 13.7203863,21.5776308 L13.1805793,21.5744928 L12.1490999,21.5608181 C11.8159597,21.5546132 11.4934988,21.5467598 11.1816965,21.5372528 L10.2782447,21.5037657 C9.26147427,21.4588977 8.37501772,21.3937097 7.61798639,21.3079801 C6.5299691,21.1847682 5.5031767,21.0124793 4.53084304,20.7890144 L3.95392377,20.6487775 L2.82104492,20.3421573 L2.82104492,17.1705262 L4.50059201,17.7183026 C6.30223362,18.2808952 8.18906544,18.6219011 10.1631424,18.7412214 L10.7801635,18.7742203 L11.3266223,18.7944912 L11.8529833,18.8019998 L11.7977582,18.727513 C11.3230709,18.0539565 11.0385804,17.2935784 10.9468662,16.454917 L10.9215148,16.1367661 L10.9141757,15.8442381 C10.9141757,14.4544779 11.3986313,13.2468112 12.3624164,12.2551183 C13.3482262,11.2407628 14.5898093,10.717285 16.0317699,10.717285 Z M16.0465654,13.7729491 C15.5232849,13.7729491 15.0986269,13.9500088 14.7183415,14.3354955 C14.3187158,14.740587 14.1215083,15.227452 14.1215083,15.8310545 C14.1215083,16.4346571 14.3187158,16.9215221 14.7183415,17.3266136 C15.0986269,17.7121003 15.5232849,17.88916 16.0465654,17.88916 C16.5590338,17.88916 16.9791575,17.7126588 17.3599939,17.3266136 C17.7596195,16.9215221 17.956827,16.4346571 17.956827,15.8310545 C17.956827,15.2261177 17.7610063,14.7382001 17.36486,14.3329174 C16.9897236,13.9491292 16.5687697,13.7729491 16.0465654,13.7729491 Z M10.2680804,2.5 L10.774275,2.50460202 L11.7443331,2.52007335 L12.6580345,2.54392232 L13.5154812,2.57617442 C13.6537067,2.58225145 13.7895926,2.58867968 13.9231408,2.59545962 L14.6963966,2.64036425 C14.8206031,2.64855322 14.9424763,2.65709498 15.0620182,2.66599006 L15.7513126,2.72360458 C15.9717639,2.74422553 16.1829074,2.766264 16.3847601,2.78972425 C17.4721341,2.91610384 18.4982758,3.09037063 19.4698409,3.31458585 L20.046284,3.45512528 L21.1789551,3.76197367 L21.1789551,6.90697753 L19.4995619,6.3594138 C17.6984564,5.79733772 15.8121984,5.45853118 13.8386871,5.34309306 L13.521418,5.3256134 L12.9395853,5.30013615 L12.4287461,5.28718248 L12.1436499,5.2847312 L12.2022418,5.36328449 C12.6769291,6.0368409 12.9614196,6.79721907 13.0531338,7.63588047 L13.0784852,7.95403134 L13.0858243,8.24655932 C13.0858243,9.6447798 12.6016506,10.8568798 11.6375836,11.8488628 C10.6517738,12.8632183 9.41019068,13.386696 7.96823008,13.386696 C6.51770584,13.386696 5.2692693,12.8641522 4.27830497,11.8505265 C3.30837324,10.8584143 2.82104492,9.64563573 2.82104492,8.24655932 C2.82104492,6.86250616 3.31291874,5.66108498 4.27011332,4.69855817 C4.96180191,3.94868675 5.88100402,3.39244055 7.01119246,3.03170256 C7.95469737,2.73055096 8.90083932,2.55672205 9.84741729,2.51151208 L10.2680804,2.5 Z M7.9534346,6.20163745 C7.43989554,6.20163745 7.01607582,6.37901698 6.63008395,6.76673121 C6.22696917,7.17164475 6.02837748,7.65746979 6.02837748,8.25974292 C6.02837748,8.86334547 6.22558504,9.35021048 6.62521066,9.75530195 C7.00549608,10.1407887 7.43015411,10.3178484 7.9534346,10.3178484 C8.46697365,10.3178484 8.89079337,10.1404689 9.27678525,9.75275462 C9.67990003,9.34784108 9.87849171,8.86201604 9.87849171,8.25974292 C9.87849171,7.65746979 9.67990003,7.17164475 9.27678525,6.76673121 C8.89079337,6.37901698 8.46697365,6.20163745 7.9534346,6.20163745 Z" id="Combined-Shape" fill="#FF4747"></path>
    </g>
</svg>