<?xml version="1.0" encoding="UTF-8"?>
<svg width="24px" height="24px" viewBox="0 0 24 24" version="1.1" xmlns="http://www.w3.org/2000/svg" xmlns:xlink="http://www.w3.org/1999/xlink">
    <title>icon/24/costellation/5-Leo</title>
    <g id="icon/24/costellation/5-Leo" stroke="none" stroke-width="1" fill="none" fill-rule="evenodd">
        <path d="M13.8259277,2.83994141 C15.3739291,2.83994141 16.6782616,3.35216915 17.6864222,4.37083146 C18.6936299,5.38853087 19.1979004,6.71224089 19.1979004,8.29101562 C19.1979004,9.81512327 18.661268,11.5273003 17.6066411,13.43816 L17.4028329,13.7987771 C16.3506059,15.6185108 15.836084,17.1459348 15.8357622,18.3398956 C15.8492926,18.8314983 16.0042149,18.9748975 16.5812988,18.9898437 C16.8577971,18.9898437 17.2883463,18.7779397 17.8384562,18.3120339 L17.9914246,18.1786394 L18.6160138,17.6186629 L20.5284958,19.6960139 L19.6744404,20.4714009 C18.6263447,21.3920255 17.5881148,21.8763672 16.5549316,21.8763672 C15.5930166,21.8763672 14.7394912,21.5747882 14.0301952,20.9780789 C13.2740997,20.3419986 12.8968262,19.4377397 12.8968262,18.3369141 C12.8968262,16.7364824 13.4248958,15.0187182 14.4636263,13.1813264 L14.6781761,12.8122523 C15.7127452,11.0797595 16.2190918,9.54464531 16.2190918,8.21191406 C16.2190918,7.39087363 15.9846258,6.7705156 15.5167562,6.29939691 C15.0495414,5.82893762 14.4419547,5.59462891 13.6413574,5.59462891 C12.8769919,5.59462891 12.3165125,5.80874464 11.9046213,6.23311735 C11.4871004,6.66329042 11.2745605,7.24938518 11.2745605,8.04052734 C11.2745605,8.41198165 11.3493938,8.8372537 11.5037165,9.31527757 C11.6776006,9.85389424 11.8572079,10.3504555 12.052875,10.8320637 C12.3617902,11.6719268 12.549795,12.5541034 12.6170364,13.4762709 C12.6888184,14.4607096 12.546385,15.3416864 12.1897526,16.0856769 C11.7036257,17.1767617 10.8905118,17.9566873 9.7856662,18.38996 C8.68020942,18.8234725 7.55737868,18.8040655 6.46802451,18.332554 C5.3748675,17.8593965 4.59059222,17.0363232 4.15557016,15.9216496 C3.93726641,15.3977206 3.82651367,14.8605698 3.82651367,14.315918 C3.82651367,13.7245434 3.95966711,13.1419971 4.21778664,12.5828306 C4.70411493,11.5021011 5.52008318,10.724726 6.63667193,10.2802938 C7.25620814,10.0399565 7.87784204,9.94214905 8.49296544,9.9855304 L8.78,10.016 L8.67291778,9.72362757 C8.50096489,9.22887148 8.38895377,8.77579969 8.33898438,8.36133951 L8.31646455,8.11727222 L8.30893555,7.88232422 C8.30893555,6.40694933 8.83800359,5.16795836 9.8812416,4.22585056 C10.9071566,3.29938647 12.2361729,2.83994141 13.8259277,2.83994141 Z M7.69069623,13.0369409 C7.32000281,13.1829716 7.07562926,13.4182462 6.91959418,13.7776841 C6.76370595,14.1367838 6.75855417,14.4703613 6.90595111,14.8389759 C7.05450196,15.22178 7.2922609,15.4753895 7.64074484,15.6333756 C7.99712921,15.7892938 8.33585969,15.7958079 8.70757663,15.6521899 C9.07506916,15.5102042 9.32030481,15.2740513 9.4803507,14.9062266 C9.64243813,14.5337099 9.65161444,14.1915646 9.51670302,13.8405844 C9.37068148,13.4755306 9.13018557,13.2271062 8.75987578,13.0618911 C8.39682566,12.8999149 8.05821577,12.8921605 7.69069623,13.0369409 Z" id="♌" fill="#FF4747"></path>
    </g>
</svg>