<?xml version="1.0" encoding="UTF-8"?>
<svg width="24px" height="24px" viewBox="0 0 24 24" version="1.1" xmlns="http://www.w3.org/2000/svg" xmlns:xlink="http://www.w3.org/1999/xlink">
    <title>icon/24/costellation/6-Virgo</title>
    <g id="icon/24/costellation/6-Virgo" stroke="none" stroke-width="1" fill="none" fill-rule="evenodd">
        <path d="M14.7126225,3.07568359 C15.5325958,3.07568359 16.1436982,3.55907932 16.5438739,4.36433319 C16.8142667,4.90843113 16.9653623,5.71699776 17.0160544,6.81608748 L17.0284616,7.176 L17.1529958,7.0846207 C17.5265878,6.82620949 17.9225738,6.65815165 18.3374799,6.59027342 L18.5464935,6.56472811 L18.7585639,6.55615234 C19.6323128,6.55615234 20.2271738,7.16095127 20.6844623,8.19707698 C21.075981,9.08418122 21.2580566,10.4709935 21.2580566,12.3950195 C21.2580566,15.0313834 20.1400936,17.4141865 17.9351486,19.5174966 L17.6413852,19.7902543 L17.3610211,20.037 C17.4771831,20.4405641 17.8021382,21.0299749 18.3445714,21.7768378 L18.5138343,22.0055919 L18.6804986,22.2234352 L19.5957256,23.4018555 L15.9046598,23.4018555 L15.5599641,23.0844397 C15.3300353,22.8563299 15.0895789,22.518188 14.828741,22.0615221 L14.7156768,21.8585269 L14.6213111,21.682 L14.5068009,21.7364756 C13.7486099,22.0772868 12.9717542,22.2982672 12.1786288,22.3971855 L11.8377288,22.4320993 L11.4948785,22.4520277 L10.6241782,22.4834881 L10.6241782,19.898437 L11.6580239,19.7375049 L11.9351678,19.684 L9.12353036,19.684082 L9.12197068,9.02901602 L9.10439768,7.74082911 L9.08538882,7.12879468 L9.06088263,6.64287948 L9.0392219,6.373 L8.89260071,6.53014441 L8.72160053,6.72587141 L8.58413829,6.89138195 C8.10771707,7.47628453 7.78971734,8.34324479 7.65248437,9.45041969 L7.61955581,9.75830078 L7.61955581,19.684082 L4.4007846,19.684082 L4.40107116,7.95858875 L4.39389723,7.70320031 C4.33838523,6.75296562 3.94561698,5.78790188 3.2004187,4.80207861 L2.98843346,4.53269857 L2.01243454,3.33935547 L5.42538656,3.33935547 L5.85876872,3.64657333 C6.12630949,3.84971728 6.36477975,4.08185788 6.57458659,4.34215734 L6.7265737,4.54264863 L6.86419352,4.748 L7.06828007,4.51583827 L7.29938584,4.2744661 C8.07569302,3.49794494 8.81199241,3.07568359 9.57795494,3.07568359 C10.4001865,3.07568359 11.0468778,3.58482854 11.5851825,4.46819424 L11.6623812,4.59950772 L11.7351373,4.73277754 L11.8146429,4.897 L12.0363685,4.6406298 L12.2802034,4.38015231 C13.1055431,3.53416872 13.8939443,3.07568359 14.7126225,3.07568359 Z M13.7463895,6.614 L13.6891326,6.69801123 L13.6018735,6.83196336 C13.2166945,7.44148601 12.8311486,8.3114929 12.4524825,9.43602575 L12.3715127,9.68 L12.3715127,19.583 L12.6364851,19.5101681 C12.9414619,19.4186848 13.2253848,19.3115558 13.488623,19.1889569 L13.7449798,19.061208 L13.8736103,18.987 L13.8020813,17.1806641 L13.8020929,8.55463776 L13.8036158,8.296624 L13.8003508,7.75954761 L13.7879449,7.28113133 L13.7665677,6.8619775 L13.7463895,6.614 Z M17.0351574,16.115 L17.1759081,15.895968 C17.7672487,14.923129 18.1268744,13.8725592 18.2571828,12.7478398 L18.2893982,12.4082031 L18.2879745,12.122529 L18.2767669,11.5965274 L18.254815,11.13196 C18.2367066,10.8429856 18.2117578,10.5957447 18.1806137,10.3917922 L18.1589407,10.267 L17.9851624,10.505024 C17.604521,11.038603 17.3089903,11.6977896 17.1027545,12.4846681 L17.0351574,12.764 L17.0351574,16.115 Z" id="â™" fill="#FF4747"></path>
    </g>
</svg>