<?xml version="1.0" encoding="UTF-8"?>
<svg width="24px" height="24px" viewBox="0 0 24 24" version="1.1" xmlns="http://www.w3.org/2000/svg" xmlns:xlink="http://www.w3.org/1999/xlink">
    <title>icon/24/costellation/7-Libra</title>
    <g id="icon/24/costellation/7-Libra" stroke="none" stroke-width="1" fill="none" fill-rule="evenodd">
        <path d="M20.5070801,16.3603516 L20.5070801,19.1137695 L3.49291992,19.1137695 L3.49291992,16.3603516 L20.5070801,16.3603516 Z M11.8132531,3.91503906 C13.3040803,3.91503906 14.579031,4.48511375 15.5999208,5.59653178 C16.6004427,6.68577568 17.1008174,8.00804438 17.1008174,9.54345703 C17.1008174,10.1976999 17.0070446,10.8128082 16.8189963,11.387235 L16.7171135,11.671051 L16.6846802,11.746 L20.5070801,11.7460938 L20.5070801,14.5126953 L13.0692987,14.5126953 L13.0686148,12.746 L13.1332076,12 L13.3535083,11.7853191 C13.4204671,11.7277862 13.4866769,11.6630428 13.5572484,11.585284 C14.0787508,11.0270083 14.3391773,10.3488699 14.3391773,9.53027344 C14.3391773,8.70142748 14.0800949,8.01554508 13.5620869,7.45264941 C13.0640437,6.91144863 12.4912376,6.65527344 11.8057833,6.65527344 C11.1203289,6.65527344 10.5475228,6.91144863 10.0494797,7.45264941 C9.53147164,8.01554508 9.27238927,8.70142748 9.27238927,9.53027344 C9.27238927,10.2670102 9.48333473,10.889976 9.92006335,11.4304812 L10.0740223,11.6076385 C10.1298574,11.6748273 10.1881272,11.7351362 10.2488148,11.7888176 L10.3416574,11.8644006 L10.5422679,12.0141943 L10.5422679,14.5126953 L3.49291992,14.5126953 L3.49291992,11.7460938 L6.95609304,11.746 L6.91445694,11.6456077 C6.73620705,11.1831597 6.62187112,10.6931438 6.57108731,10.1763727 L6.54824038,9.863106 L6.5406286,9.54345703 C6.5406286,8.00854654 7.03812573,6.68669825 8.03310634,5.59756777 C9.04905199,4.48548843 10.3219929,3.91503906 11.8132531,3.91503906 Z" id="♎" fill="#FF4747"></path>
    </g>
</svg>