<?xml version="1.0" encoding="UTF-8"?>
<svg width="24px" height="24px" viewBox="0 0 24 24" version="1.1" xmlns="http://www.w3.org/2000/svg" xmlns:xlink="http://www.w3.org/1999/xlink">
    <title>icon/24/costellation/8-Scorpio</title>
    <g id="icon/24/costellation/8-Scorpio" stroke="none" stroke-width="1" fill="none" fill-rule="evenodd">
        <path d="M14.0474024,7.20943846 L14.1897659,6.951 L14.2004857,7.10705901 C14.2088614,7.24643513 14.2157852,7.39641062 14.2212336,7.55689259 L14.2331286,8.06976511 C14.2343654,8.16046615 14.2352275,8.25377059 14.2357119,8.34966684 L14.2345085,8.90872682 L14.4405263,17.379658 C14.4960248,18.3417454 14.6922103,19.125856 15.0432006,19.7553321 C15.5832443,20.8109425 16.6702505,21.3929879 18.1551861,21.4560281 L18.4832188,21.461 L18.4834083,22.2046208 L19.2318248,23.2112943 L22.5087584,20.1431831 L19.7045184,17.5361328 L18.4834083,17.5361328 L18.4832188,18.801 L18.4376683,18.8017578 C18.1477393,18.7972436 17.9403495,18.6948112 17.7536322,18.4497295 C17.5497219,18.1820807 17.4245385,17.7834985 17.3976095,17.2442022 L17.3919855,17.0041403 L17.3921847,8.02929688 C17.3921847,6.37442665 17.2478537,5.21667372 16.9268702,4.50494744 C16.5437387,3.65541862 15.9643315,3.13964844 15.1443948,3.13964844 C14.3275012,3.13964844 13.5706797,3.63401171 12.7797972,4.54199695 L12.5535253,4.81251569 L12.4210863,4.984 L12.3822146,4.89653255 C12.3381854,4.80316454 12.2913775,4.71117648 12.241784,4.62054539 C11.7280292,3.68166835 11.1160694,3.13964844 10.2926972,3.13964844 C9.51975576,3.13964844 8.80758674,3.59622621 8.06562944,4.43060747 L7.84904022,4.68499845 L7.73174364,4.836 L7.6543672,4.70675952 C7.4255892,4.3455076 7.15378321,4.02968979 6.83772501,3.76056326 L6.40469538,3.41650391 L3.14501965,3.41650391 L3.99116139,4.57694093 C4.84149992,5.74313362 5.2888144,6.88145625 5.34770214,7.99865434 L5.35465421,8.27114598 L5.35442053,20.6708984 L8.48270366,20.6708984 L8.48270366,10.1914063 C8.59824928,8.8244563 8.92022714,7.7684453 9.4201376,7.08108755 L9.61305714,6.82345857 L9.74799372,6.653 L9.7681671,6.95329899 L9.7964047,7.67147211 L9.81525417,8.60348037 L9.82386352,10.0470857 L9.82386316,20.6708984 L12.9668484,20.6708984 L12.9664106,10.09 L13.1399485,9.51590082 C13.4401279,8.55983987 13.7438444,7.78978897 14.0474024,7.20943846 Z" id="â™" fill="#FF4747"></path>
    </g>
</svg>